<svg xmlns="http://www.w3.org/2000/svg" xmlns:xlink="http://www.w3.org/1999/xlink" version="1.1" data-diagram-type="SEQUENCE" style="width:1410px;height:1253px;background:#FFFFFF;" width="1410px" height="1253px" viewBox="0 0 1410 1253" zoomAndPan="magnify" preserveAspectRatio="none" contentStyleType="text/css"><?plantuml 1.2026.8?><defs/><g font-family="sans-serif" lengthAdjust="spacing"><g class="title" data-source-line="1"><text x="486.75" y="27.995" fill="#000" font-size="14" textLength="434.82" font-weight="700">03 - Saga do Pedido, Reservas e Shipment - Fluxo Feliz</text></g><g><title>Kafka</title><rect x="36.188" y="109.594" width="8" height="1070.383" fill="#000" fill-opacity="0"/><line x1="39.688" y1="109.594" x2="39.688" y2="1179.977" style="stroke:#181818;stroke-width:0.5;stroke-dasharray:5,5;"/></g><g><title>Order Service</title><rect x="382.793" y="109.594" width="8" height="1070.383" fill="#000" fill-opacity="0"/><line x1="386.293" y1="109.594" x2="386.293" y2="1179.977" style="stroke:#181818;stroke-width:0.5;stroke-dasharray:5,5;"/></g><g><title></title><rect x="381.293" y="138.727" width="10" height="87.398" fill="#FFF" style="stroke:#181818;stroke-width:1;"/></g><g><title></title><rect x="381.293" y="569.453" width="10" height="116.531" fill="#FFF" style="stroke:#181818;stroke-width:1;"/></g><g><title></title><rect x="381.293" y="1074.578" width="10" height="87.398" fill="#FFF" style="stroke:#181818;stroke-width:1;"/></g><g><title>Inventory Service</title><rect x="516.435" y="109.594" width="8" height="1070.383" fill="#000" fill-opacity="0"/><line x1="519.935" y1="109.594" x2="519.935" y2="1179.977" style="stroke:#181818;stroke-width:0.5;stroke-dasharray:5,5;"/></g><g><title></title><rect x="514.935" y="255.258" width="10" height="113.398" fill="#FFF" style="stroke:#181818;stroke-width:1;"/></g><g><title>Fulfillment Center Service</title><rect x="697.6" y="109.594" width="8" height="1070.383" fill="#000" fill-opacity="0"/><line x1="701.1" y1="109.594" x2="701.1" y2="1179.977" style="stroke:#181818;stroke-width:0.5;stroke-dasharray:5,5;"/></g><g><title></title><rect x="696.1" y="397.789" width="10" height="113.398" fill="#FFF" style="stroke:#181818;stroke-width:1;"/></g><g><title>Shipment Service</title><rect x="927.813" y="109.594" width="8" height="1070.383" fill="#000" fill-opacity="0"/><line x1="931.313" y1="109.594" x2="931.313" y2="1179.977" style="stroke:#181818;stroke-width:0.5;stroke-dasharray:5,5;"/></g><g><title></title><rect x="926.313" y="831.648" width="10" height="213.797" fill="#FFF" style="stroke:#181818;stroke-width:1;"/></g><g><title>Carrier Service</title><rect x="1255.796" y="109.594" width="8" height="1070.383" fill="#000" fill-opacity="0"/><line x1="1259.296" y1="109.594" x2="1259.296" y2="1179.977" style="stroke:#181818;stroke-width:0.5;stroke-dasharray:5,5;"/></g><g><title>Order DB</title><rect x="1360.388" y="109.594" width="8" height="1070.383" fill="#000" fill-opacity="0"/><line x1="1363.888" y1="109.594" x2="1363.888" y2="1179.977" style="stroke:#181818;stroke-width:0.5;stroke-dasharray:5,5;"/></g><path d="M15,83.297 L64.375,83.297 C69.375,83.297 69.375,96.445 69.375,96.445 C69.375,96.445 69.375,109.594 64.375,109.594 L15,109.594 C10,109.594 10,96.445 10,96.445 C10,96.445 10,83.297 15,83.297" style="stroke:#181818;stroke-width:0.5;" fill="#E2E2F0"/><path d="M64.375,83.297 C59.375,83.297 59.375,96.445 59.375,96.445 C59.375,109.594 64.375,109.594 64.375,109.594" style="stroke:#181818;stroke-width:0.5;" fill="none"/><text x="15" y="101.292" fill="#000" font-size="14" textLength="39.375">Kafka</text><rect x="331.182" y="78.297" width="110.223" height="30.297" fill="#E2E2F0" style="stroke:#181818;stroke-width:0.5;" rx="2.5" ry="2.5"/><text x="338.182" y="98.292" fill="#000" font-size="14" textLength="96.223">Order Service</text><rect x="451.405" y="78.297" width="137.061" height="30.297" fill="#E2E2F0" style="stroke:#181818;stroke-width:0.5;" rx="2.5" ry="2.5"/><text x="458.405" y="98.292" fill="#000" font-size="14" textLength="123.061">Inventory Service</text><rect x="603.206" y="78.297" width="195.788" height="30.297" fill="#E2E2F0" style="stroke:#181818;stroke-width:0.5;" rx="2.5" ry="2.5"/><text x="610.206" y="98.292" fill="#000" font-size="14" textLength="181.788">Fulfillment Center Service</text><rect x="862.642" y="78.297" width="137.341" height="30.297" fill="#E2E2F0" style="stroke:#181818;stroke-width:0.5;" rx="2.5" ry="2.5"/><text x="869.642" y="98.292" fill="#000" font-size="14" textLength="123.341">Shipment Service</text><rect x="1200.138" y="78.297" width="118.316" height="30.297" fill="#E2E2F0" style="stroke:#181818;stroke-width:0.5;" rx="2.5" ry="2.5"/><text x="1207.138" y="98.292" fill="#000" font-size="14" textLength="104.316">Carrier Service</text><text x="1328.455" y="106.292" fill="#000" font-size="14" textLength="64.866">Order DB</text><path d="M1345.888,57.297 C1345.888,47.297 1363.888,47.297 1363.888,47.297 C1363.888,47.297 1381.888,47.297 1381.888,57.297 L1381.888,83.297 C1381.888,93.297 1363.888,93.297 1363.888,93.297 C1363.888,93.297 1345.888,93.297 1345.888,83.297 L1345.888,57.297" style="stroke:#181818;stroke-width:0.5;" fill="#E2E2F0"/><path d="M1345.888,57.297 C1345.888,67.297 1363.888,67.297 1363.888,67.297 C1363.888,67.297 1381.888,67.297 1381.888,57.297" style="stroke:#181818;stroke-width:0.5;" fill="none"/><path d="M15,1179.977 L64.375,1179.977 C69.375,1179.977 69.375,1193.125 69.375,1193.125 C69.375,1193.125 69.375,1206.273 64.375,1206.273 L15,1206.273 C10,1206.273 10,1193.125 10,1193.125 C10,1193.125 10,1179.977 15,1179.977" style="stroke:#181818;stroke-width:0.5;" fill="#E2E2F0"/><path d="M64.375,1179.977 C59.375,1179.977 59.375,1193.125 59.375,1193.125 C59.375,1206.273 64.375,1206.273 64.375,1206.273" style="stroke:#181818;stroke-width:0.5;" fill="none"/><text x="15" y="1197.972" fill="#000" font-size="14" textLength="39.375">Kafka</text><rect x="331.182" y="1179.977" width="110.223" height="30.297" fill="#E2E2F0" style="stroke:#181818;stroke-width:0.5;" rx="2.5" ry="2.5"/><text x="338.182" y="1199.972" fill="#000" font-size="14" textLength="96.223">Order Service</text><rect x="451.405" y="1179.977" width="137.061" height="30.297" fill="#E2E2F0" style="stroke:#181818;stroke-width:0.5;" rx="2.5" ry="2.5"/><text x="458.405" y="1199.972" fill="#000" font-size="14" textLength="123.061">Inventory Service</text><rect x="603.206" y="1179.977" width="195.788" height="30.297" fill="#E2E2F0" style="stroke:#181818;stroke-width:0.5;" rx="2.5" ry="2.5"/><text x="610.206" y="1199.972" fill="#000" font-size="14" textLength="181.788">Fulfillment Center Service</text><rect x="862.642" y="1179.977" width="137.341" height="30.297" fill="#E2E2F0" style="stroke:#181818;stroke-width:0.5;" rx="2.5" ry="2.5"/><text x="869.642" y="1199.972" fill="#000" font-size="14" textLength="123.341">Shipment Service</text><rect x="1200.138" y="1179.977" width="118.316" height="30.297" fill="#E2E2F0" style="stroke:#181818;stroke-width:0.5;" rx="2.5" ry="2.5"/><text x="1207.138" y="1199.972" fill="#000" font-size="14" textLength="104.316">Carrier Service</text><text x="1328.455" y="1192.972" fill="#000" font-size="14" textLength="64.866">Order DB</text><path d="M1345.888,1206.273 C1345.888,1196.273 1363.888,1196.273 1363.888,1196.273 C1363.888,1196.273 1381.888,1196.273 1381.888,1206.273 L1381.888,1232.273 C1381.888,1242.273 1363.888,1242.273 1363.888,1242.273 C1363.888,1242.273 1345.888,1242.273 1345.888,1232.273 L1345.888,1206.273" style="stroke:#181818;stroke-width:0.5;" fill="#E2E2F0"/><path d="M1345.888,1206.273 C1345.888,1216.273 1363.888,1216.273 1363.888,1216.273 C1363.888,1216.273 1381.888,1216.273 1381.888,1206.273" style="stroke:#181818;stroke-width:0.5;" fill="none"/><polygon points="369.293,134.727,379.293,138.727,369.293,142.727,373.293,138.727" fill="#181818" style="stroke:#181818;stroke-width:1;stroke-linejoin:miter;stroke-miterlimit:10;"/><line x1="39.688" y1="138.727" x2="375.293" y2="138.727" style="stroke:#181818;stroke-width:1;"/><text x="46.688" y="133.661" fill="#000" font-size="13" font-weight="700">1</text><text x="59.733" y="133.661" fill="#000" font-size="13" textLength="237.872">CheckoutConfirmedIntegrationEvent</text><polygon points="1351.888,163.859,1361.888,167.859,1351.888,171.859,1355.888,167.859" fill="#181818" style="stroke:#181818;stroke-width:1;stroke-linejoin:miter;stroke-miterlimit:10;"/><line x1="391.293" y1="167.859" x2="1357.888" y2="167.859" style="stroke:#181818;stroke-width:1;"/><text x="398.293" y="162.793" fill="#000" font-size="13" font-weight="700">2</text><text x="411.339" y="162.793" fill="#000" font-size="13" textLength="199.888">Cria pedido em status Pending</text><polygon points="50.688,192.992,40.688,196.992,50.688,200.992,46.688,196.992" fill="#181818" style="stroke:#181818;stroke-width:1;stroke-linejoin:miter;stroke-miterlimit:10;"/><line x1="44.688" y1="196.992" x2="380.293" y2="196.992" style="stroke:#181818;stroke-width:1;"/><text x="56.688" y="191.926" fill="#000" font-size="13" font-weight="700">3</text><text x="69.733" y="191.926" fill="#000" font-size="13" textLength="181.746">ReserveInventoryCommand</text><polygon points="50.688,222.125,40.688,226.125,50.688,230.125,46.688,226.125" fill="#181818" style="stroke:#181818;stroke-width:1;stroke-linejoin:miter;stroke-miterlimit:10;"/><line x1="44.688" y1="226.125" x2="380.293" y2="226.125" style="stroke:#181818;stroke-width:1;"/><text x="56.688" y="221.059" fill="#000" font-size="13" font-weight="700">4</text><text x="69.733" y="221.059" fill="#000" font-size="13" textLength="245.204">ReserveFulfillmentCapacityCommand</text><polygon points="502.935,251.258,512.935,255.258,502.935,259.258,506.935,255.258" fill="#181818" style="stroke:#181818;stroke-width:1;stroke-linejoin:miter;stroke-miterlimit:10;"/><line x1="39.688" y1="255.258" x2="508.935" y2="255.258" style="stroke:#181818;stroke-width:1;"/><text x="46.688" y="250.192" fill="#000" font-size="13" font-weight="700">5</text><text x="59.733" y="250.192" fill="#000" font-size="13" textLength="181.746">ReserveInventoryCommand</text><line x1="524.935" y1="284.391" x2="566.935" y2="284.391" style="stroke:#181818;stroke-width:1;"/><line x1="566.935" y1="284.391" x2="566.935" y2="297.391" style="stroke:#181818;stroke-width:1;"/><line x1="525.935" y1="297.391" x2="566.935" y2="297.391" style="stroke:#181818;stroke-width:1;"/><polygon points="535.935,293.391,525.935,297.391,535.935,301.391,531.935,297.391" fill="#181818" style="stroke:#181818;stroke-width:1;stroke-linejoin:miter;stroke-miterlimit:10;"/><text x="531.935" y="279.325" fill="#000" font-size="13" font-weight="700">6</text><text x="544.98" y="279.325" fill="#000" font-size="13" textLength="149.119">Valida saldo disponível</text><line x1="524.935" y1="326.523" x2="566.935" y2="326.523" style="stroke:#181818;stroke-width:1;"/><line x1="566.935" y1="326.523" x2="566.935" y2="339.523" style="stroke:#181818;stroke-width:1;"/><line x1="525.935" y1="339.523" x2="566.935" y2="339.523" style="stroke:#181818;stroke-width:1;"/><polygon points="535.935,335.523,525.935,339.523,535.935,343.523,531.935,339.523" fill="#181818" style="stroke:#181818;stroke-width:1;stroke-linejoin:miter;stroke-miterlimit:10;"/><text x="531.935" y="321.458" fill="#000" font-size="13" font-weight="700">7</text><text x="544.98" y="321.458" fill="#000" font-size="13" textLength="135.814">Cria reserva Pending</text><polygon points="50.688,364.656,40.688,368.656,50.688,372.656,46.688,368.656" fill="#181818" style="stroke:#181818;stroke-width:1;stroke-linejoin:miter;stroke-miterlimit:10;"/><line x1="44.688" y1="368.656" x2="513.935" y2="368.656" style="stroke:#181818;stroke-width:1;"/><text x="56.688" y="363.59" fill="#000" font-size="13" font-weight="700">8</text><text x="69.733" y="363.59" fill="#000" font-size="13" textLength="232.058">InventoryReservedIntegrationEvent</text><polygon points="684.1,393.789,694.1,397.789,684.1,401.789,688.1,397.789" fill="#181818" style="stroke:#181818;stroke-width:1;stroke-linejoin:miter;stroke-miterlimit:10;"/><line x1="39.688" y1="397.789" x2="690.1" y2="397.789" style="stroke:#181818;stroke-width:1;"/><text x="46.688" y="392.723" fill="#000" font-size="13" font-weight="700">9</text><text x="59.733" y="392.723" fill="#000" font-size="13" textLength="245.204">ReserveFulfillmentCapacityCommand</text><line x1="706.1" y1="426.922" x2="748.1" y2="426.922" style="stroke:#181818;stroke-width:1;"/><line x1="748.1" y1="426.922" x2="748.1" y2="439.922" style="stroke:#181818;stroke-width:1;"/><line x1="707.1" y1="439.922" x2="748.1" y2="439.922" style="stroke:#181818;stroke-width:1;"/><polygon points="717.1,435.922,707.1,439.922,717.1,443.922,713.1,439.922" fill="#181818" style="stroke:#181818;stroke-width:1;stroke-linejoin:miter;stroke-miterlimit:10;"/><text x="713.1" y="421.856" fill="#000" font-size="13" textLength="18.091" font-weight="700">10</text><text x="735.19" y="421.856" fill="#000" font-size="13" textLength="189.122">Valida capacidade disponível</text><line x1="706.1" y1="469.055" x2="748.1" y2="469.055" style="stroke:#181818;stroke-width:1;"/><line x1="748.1" y1="469.055" x2="748.1" y2="482.055" style="stroke:#181818;stroke-width:1;"/><line x1="707.1" y1="482.055" x2="748.1" y2="482.055" style="stroke:#181818;stroke-width:1;"/><polygon points="717.1,478.055,707.1,482.055,717.1,486.055,713.1,482.055" fill="#181818" style="stroke:#181818;stroke-width:1;stroke-linejoin:miter;stroke-miterlimit:10;"/><text x="713.1" y="463.989" fill="#000" font-size="13" textLength="18.091" font-weight="700">11</text><text x="735.19" y="463.989" fill="#000" font-size="13" textLength="135.814">Cria reserva Pending</text><polygon points="50.688,507.188,40.688,511.188,50.688,515.188,46.688,511.188" fill="#181818" style="stroke:#181818;stroke-width:1;stroke-linejoin:miter;stroke-miterlimit:10;"/><line x1="44.688" y1="511.188" x2="695.1" y2="511.188" style="stroke:#181818;stroke-width:1;"/><text x="56.688" y="506.122" fill="#000" font-size="13" textLength="18.091" font-weight="700">12</text><text x="78.778" y="506.122" fill="#000" font-size="13" textLength="295.515">FulfillmentCapacityReservedIntegrationEvent</text><polygon points="374.293,536.32,384.293,540.32,374.293,544.32,378.293,540.32" fill="#181818" style="stroke:#181818;stroke-width:1;stroke-linejoin:miter;stroke-miterlimit:10;"/><line x1="39.688" y1="540.32" x2="380.293" y2="540.32" style="stroke:#181818;stroke-width:1;"/><text x="46.688" y="535.254" fill="#000" font-size="13" textLength="18.091" font-weight="700">13</text><text x="68.778" y="535.254" fill="#000" font-size="13" textLength="232.058">InventoryReservedIntegrationEvent</text><polygon points="369.293,565.453,379.293,569.453,369.293,573.453,373.293,569.453" fill="#181818" style="stroke:#181818;stroke-width:1;stroke-linejoin:miter;stroke-miterlimit:10;"/><line x1="39.688" y1="569.453" x2="375.293" y2="569.453" style="stroke:#181818;stroke-width:1;"/><text x="46.688" y="564.387" fill="#000" font-size="13" textLength="18.091" font-weight="700">14</text><text x="68.778" y="564.387" fill="#000" font-size="13" textLength="295.515">FulfillmentCapacityReservedIntegrationEvent</text><polygon points="1351.888,594.586,1361.888,598.586,1351.888,602.586,1355.888,598.586" fill="#181818" style="stroke:#181818;stroke-width:1;stroke-linejoin:miter;stroke-miterlimit:10;"/><line x1="391.293" y1="598.586" x2="1357.888" y2="598.586" style="stroke:#181818;stroke-width:1;"/><text x="398.293" y="593.52" fill="#000" font-size="13" textLength="18.091" font-weight="700">15</text><text x="420.384" y="593.52" fill="#000" font-size="13" textLength="206.991">Marca reservas como recebidas</text><polygon points="50.688,623.719,40.688,627.719,50.688,631.719,46.688,627.719" fill="#181818" style="stroke:#181818;stroke-width:1;stroke-linejoin:miter;stroke-miterlimit:10;"/><line x1="44.688" y1="627.719" x2="380.293" y2="627.719" style="stroke:#181818;stroke-width:1;"/><text x="56.688" y="622.653" fill="#000" font-size="13" textLength="18.091" font-weight="700">16</text><text x="78.778" y="622.653" fill="#000" font-size="13" textLength="258.083">ConfirmInventoryReservationCommand</text><polygon points="50.688,652.852,40.688,656.852,50.688,660.852,46.688,656.852" fill="#181818" style="stroke:#181818;stroke-width:1;stroke-linejoin:miter;stroke-miterlimit:10;"/><line x1="44.688" y1="656.852" x2="380.293" y2="656.852" style="stroke:#181818;stroke-width:1;"/><text x="56.688" y="651.786" fill="#000" font-size="13" textLength="18.091" font-weight="700">17</text><text x="78.778" y="651.786" fill="#000" font-size="13" textLength="243.833">ConfirmFulfillmentCapacityCommand</text><polygon points="50.688,681.984,40.688,685.984,50.688,689.984,46.688,685.984" fill="#181818" style="stroke:#181818;stroke-width:1;stroke-linejoin:miter;stroke-miterlimit:10;"/><line x1="44.688" y1="685.984" x2="380.293" y2="685.984" style="stroke:#181818;stroke-width:1;"/><text x="56.688" y="680.918" fill="#000" font-size="13" textLength="18.091" font-weight="700">18</text><text x="78.778" y="680.918" fill="#000" font-size="13" textLength="172.65">CreateShipmentCommand</text><polygon points="507.935,711.117,517.935,715.117,507.935,719.117,511.935,715.117" fill="#181818" style="stroke:#181818;stroke-width:1;stroke-linejoin:miter;stroke-miterlimit:10;"/><line x1="39.688" y1="715.117" x2="513.935" y2="715.117" style="stroke:#181818;stroke-width:1;"/><text x="46.688" y="710.051" fill="#000" font-size="13" textLength="18.091" font-weight="700">19</text><text x="68.778" y="710.051" fill="#000" font-size="13" textLength="258.083">ConfirmInventoryReservationCommand</text><polygon points="50.688,740.25,40.688,744.25,50.688,748.25,46.688,744.25" fill="#181818" style="stroke:#181818;stroke-width:1;stroke-linejoin:miter;stroke-miterlimit:10;"/><line x1="44.688" y1="744.25" x2="518.935" y2="744.25" style="stroke:#181818;stroke-width:1;"/><text x="56.688" y="739.184" fill="#000" font-size="13" textLength="18.091" font-weight="700">20</text><text x="78.778" y="739.184" fill="#000" font-size="13" textLength="316.393">InventoryReservationConfirmedIntegrationEvent</text><polygon points="689.1,769.383,699.1,773.383,689.1,777.383,693.1,773.383" fill="#181818" style="stroke:#181818;stroke-width:1;stroke-linejoin:miter;stroke-miterlimit:10;"/><line x1="39.688" y1="773.383" x2="695.1" y2="773.383" style="stroke:#181818;stroke-width:1;"/><text x="46.688" y="768.317" fill="#000" font-size="13" textLength="18.091" font-weight="700">21</text><text x="68.778" y="768.317" fill="#000" font-size="13" textLength="243.833">ConfirmFulfillmentCapacityCommand</text><polygon points="50.688,798.516,40.688,802.516,50.688,806.516,46.688,802.516" fill="#181818" style="stroke:#181818;stroke-width:1;stroke-linejoin:miter;stroke-miterlimit:10;"/><line x1="44.688" y1="802.516" x2="700.1" y2="802.516" style="stroke:#181818;stroke-width:1;"/><text x="56.688" y="797.45" fill="#000" font-size="13" textLength="18.091" font-weight="700">22</text><text x="78.778" y="797.45" fill="#000" font-size="13" textLength="302.142">FulfillmentCapacityConfirmedIntegrationEvent</text><polygon points="914.313,827.648,924.313,831.648,914.313,835.648,918.313,831.648" fill="#181818" style="stroke:#181818;stroke-width:1;stroke-linejoin:miter;stroke-miterlimit:10;"/><line x1="39.688" y1="831.648" x2="920.313" y2="831.648" style="stroke:#181818;stroke-width:1;"/><text x="46.688" y="826.583" fill="#000" font-size="13" textLength="18.091" font-weight="700">23</text><text x="68.778" y="826.583" fill="#000" font-size="13" textLength="172.65">CreateShipmentCommand</text><line x1="936.313" y1="860.781" x2="978.313" y2="860.781" style="stroke:#181818;stroke-width:1;"/><line x1="978.313" y1="860.781" x2="978.313" y2="873.781" style="stroke:#181818;stroke-width:1;"/><line x1="937.313" y1="873.781" x2="978.313" y2="873.781" style="stroke:#181818;stroke-width:1;"/><polygon points="947.313,869.781,937.313,873.781,947.313,877.781,943.313,873.781" fill="#181818" style="stroke:#181818;stroke-width:1;stroke-linejoin:miter;stroke-miterlimit:10;"/><text x="943.313" y="855.715" fill="#000" font-size="13" textLength="18.091" font-weight="700">24</text><text x="965.403" y="855.715" fill="#000" font-size="13" textLength="172.536">Aplica inbox/idempotência</text><line x1="936.313" y1="902.914" x2="978.313" y2="902.914" style="stroke:#181818;stroke-width:1;"/><line x1="978.313" y1="902.914" x2="978.313" y2="915.914" style="stroke:#181818;stroke-width:1;"/><line x1="937.313" y1="915.914" x2="978.313" y2="915.914" style="stroke:#181818;stroke-width:1;"/><polygon points="947.313,911.914,937.313,915.914,947.313,919.914,943.313,915.914" fill="#181818" style="stroke:#181818;stroke-width:1;stroke-linejoin:miter;stroke-miterlimit:10;"/><text x="943.313" y="897.848" fill="#000" font-size="13" textLength="18.091" font-weight="700">25</text><text x="965.403" y="897.848" fill="#000" font-size="13" textLength="244.715">Cria shipment PendingCarrierBooking</text><polygon points="1247.296,941.047,1257.296,945.047,1247.296,949.047,1251.296,945.047" fill="#181818" style="stroke:#181818;stroke-width:1;stroke-linejoin:miter;stroke-miterlimit:10;"/><line x1="936.313" y1="945.047" x2="1253.296" y2="945.047" style="stroke:#181818;stroke-width:1;"/><text x="943.313" y="939.981" fill="#000" font-size="13" textLength="18.091" font-weight="700">26</text><text x="965.403" y="939.981" fill="#000" font-size="13" textLength="281.893">Booking de shipment / geração de etiqueta</text><polygon points="947.313,970.18,937.313,974.18,947.313,978.18,943.313,974.18" fill="#181818" style="stroke:#181818;stroke-width:1;stroke-linejoin:miter;stroke-miterlimit:10;"/><line x1="941.313" y1="974.18" x2="1258.296" y2="974.18" style="stroke:#181818;stroke-width:1;stroke-dasharray:2,2;"/><text x="953.313" y="969.114" fill="#000" font-size="13" textLength="18.091" font-weight="700">27</text><text x="975.403" y="969.114" fill="#000" font-size="13" textLength="142.111">Tracking code + label</text><line x1="936.313" y1="1003.313" x2="978.313" y2="1003.313" style="stroke:#181818;stroke-width:1;"/><line x1="978.313" y1="1003.313" x2="978.313" y2="1016.313" style="stroke:#181818;stroke-width:1;"/><line x1="937.313" y1="1016.313" x2="978.313" y2="1016.313" style="stroke:#181818;stroke-width:1;"/><polygon points="947.313,1012.313,937.313,1016.313,947.313,1020.313,943.313,1016.313" fill="#181818" style="stroke:#181818;stroke-width:1;stroke-linejoin:miter;stroke-miterlimit:10;"/><text x="943.313" y="998.247" fill="#000" font-size="13" textLength="18.091" font-weight="700">28</text><text x="965.403" y="998.247" fill="#000" font-size="13" textLength="193.972">Marca shipment ReadyToShip</text><polygon points="50.688,1041.445,40.688,1045.445,50.688,1049.445,46.688,1045.445" fill="#181818" style="stroke:#181818;stroke-width:1;stroke-linejoin:miter;stroke-miterlimit:10;"/><line x1="44.688" y1="1045.445" x2="925.313" y2="1045.445" style="stroke:#181818;stroke-width:1;"/><text x="56.688" y="1040.379" fill="#000" font-size="13" textLength="18.091" font-weight="700">29</text><text x="78.778" y="1040.379" fill="#000" font-size="13" textLength="222.961">ShipmentCreatedIntegrationEvent</text><polygon points="369.293,1070.578,379.293,1074.578,369.293,1078.578,373.293,1074.578" fill="#181818" style="stroke:#181818;stroke-width:1;stroke-linejoin:miter;stroke-miterlimit:10;"/><line x1="39.688" y1="1074.578" x2="375.293" y2="1074.578" style="stroke:#181818;stroke-width:1;"/><text x="46.688" y="1069.512" fill="#000" font-size="13" textLength="18.091" font-weight="700">30</text><text x="68.778" y="1069.512" fill="#000" font-size="13" textLength="222.961">ShipmentCreatedIntegrationEvent</text><polygon points="1351.888,1099.711,1361.888,1103.711,1351.888,1107.711,1355.888,1103.711" fill="#181818" style="stroke:#181818;stroke-width:1;stroke-linejoin:miter;stroke-miterlimit:10;"/><line x1="391.293" y1="1103.711" x2="1357.888" y2="1103.711" style="stroke:#181818;stroke-width:1;"/><text x="398.293" y="1098.645" fill="#000" font-size="13" textLength="18.091" font-weight="700">31</text><text x="420.384" y="1098.645" fill="#000" font-size="13" textLength="199.945">Registra shipmentId no pedido</text><polygon points="1351.888,1128.844,1361.888,1132.844,1351.888,1136.844,1355.888,1132.844" fill="#181818" style="stroke:#181818;stroke-width:1;stroke-linejoin:miter;stroke-miterlimit:10;"/><line x1="391.293" y1="1132.844" x2="1357.888" y2="1132.844" style="stroke:#181818;stroke-width:1;"/><text x="398.293" y="1127.778" fill="#000" font-size="13" textLength="18.091" font-weight="700">32</text><text x="420.384" y="1127.778" fill="#000" font-size="13" textLength="264.951">Atualiza saga para etapa logística criada</text><polygon points="50.688,1157.977,40.688,1161.977,50.688,1165.977,46.688,1161.977" fill="#181818" style="stroke:#181818;stroke-width:1;stroke-linejoin:miter;stroke-miterlimit:10;"/><line x1="44.688" y1="1161.977" x2="380.293" y2="1161.977" style="stroke:#181818;stroke-width:1;"/><text x="56.688" y="1156.911" fill="#000" font-size="13" textLength="18.091" font-weight="700">33</text><text x="78.778" y="1156.911" fill="#000" font-size="13" textLength="213.764">OrderConfirmedIntegrationEvent</text><?plantuml-src bLPBRjim4Dth50DlMoC5klEYGA9KW54KBUoW-n4vLWXBeafHHfBhT56WG4xXYtLCKvHbMP6pCMpopUUz-T1MsPpWqsUOmnep1AdX9qabzKTOKKrcXpKGh1zLLL1f6PNapPE6X7Br4aNOM5qsHKec-jrGGp3xXfijpe2jtBUeGcELK1MoyUo7aMHWpLwL80To9ttGijnn96sUUy1msWSdJRvHUUvoY_dZp7qIz-61noceFUn3OpH6dRdpPv54YodMr3Awl-l8tATHvAZ3_ClnP07n8ucjRcoiouqo1SabPvePj4gNNm-y8XHMxT2I5-JejdLmdx8Ben0gLncW0cgBjgcvLALKPTRXNUI5Bnq5qM9T55ZACTo9YZ5MA9GD5fBEKkl81U_ZyO9jLxwkl7qNlp1N4g76d1bALLUwtB_kA1yrS8gOOuy68NfWJpAS-Io7wf-Gx1BjY2RnDKe55znqITpQULh2WILAwd7hS1VP7AyzZGkXho74sGpwSLgHSult19_ivUzeH21RWz25vb-2KXQe7lIe7vgpd5syiRRs9cyKQs1XY3DkDy7xcl-A1AzeIuyVMn2zPfpcDzKvuu6wIAqQO-e4RS82xPw9K-lRAbTSRrMc-kb6IIegRVV_Ig5mnC3DGjrU-M7mk_TEw-rXD4uj_TK2_2Nmb0Np6yZ8uFxl_ey-d9DL_59PZDhzFk-5VZ0ed0kX6Vm1SanvJ2-dUMpZ46X5A9yVzE6-P-2B4DHpMhuvia7FmHXEEPaSlHLbghQcItifeTJ-ORc0lxKDBx2NmrxcFmVyG28ho3q4kSxshxKz55PmkIGEHihz7k-pmMpz1m00?></g></svg>