<svg xmlns="http://www.w3.org/2000/svg" xmlns:xlink="http://www.w3.org/1999/xlink" contentStyleType="text/css" data-diagram-type="SEQUENCE" height="687px" preserveAspectRatio="none" style="width:1481px;height:687px;background:#FFFFFF;" version="1.1" viewBox="0 0 1481 687" width="1481px" zoomAndPan="magnify"><?plantuml 1.2026.6?><defs/><g><g class="title" data-source-line="1"><text fill="#000000" font-family="sans-serif" font-size="14" font-weight="700" lengthAdjust="spacing" textLength="311.623" x="581.4866" y="27.9951">04 - Tracking e Notifica&#231;&#227;o - Fluxo Feliz</text></g><g><title>Tracking Service</title><rect fill="#FFFFFF" height="145.6641" style="stroke:#181818;stroke-width:1;" width="10" x="652.7983" y="178.8594"/></g><g><title>Notification Service</title><rect fill="#FFFFFF" height="203.9297" style="stroke:#181818;stroke-width:1;" width="10" x="1062.0786" y="353.6563"/></g><g class="participant-lifeline" data-entity-uid="part1" data-qualified-name="Provider" data-source-line="4" id="part1-lifeline"><g><title>Carrier.Provider</title><rect fill="#000000" fill-opacity="0.00000" height="486.125" width="8" x="63.5181" y="118.5938"/><line style="stroke:#181818;stroke-width:0.5;stroke-dasharray:5,5;" x1="67" x2="67" y1="118.5938" y2="604.7188"/></g></g><g class="participant-lifeline" data-entity-uid="part2" data-qualified-name="Kafka" data-source-line="5" id="part2-lifeline"><g><title>Kafka</title><rect fill="#000000" fill-opacity="0.00000" height="486.125" width="8" x="347.3984" y="118.5938"/><line style="stroke:#181818;stroke-width:0.5;stroke-dasharray:5,5;" x1="350.7109" x2="350.7109" y1="118.5938" y2="604.7188"/></g></g><g class="participant-lifeline" data-entity-uid="part3" data-qualified-name="Tracking" data-source-line="6" id="part3-lifeline"><g><title>Tracking Service</title><rect fill="#000000" fill-opacity="0.00000" height="486.125" width="8" x="653.7983" y="118.5938"/><line style="stroke:#181818;stroke-width:0.5;stroke-dasharray:5,5;" x1="657.5322" x2="657.5322" y1="118.5938" y2="604.7188"/></g></g><g class="participant-lifeline" data-entity-uid="part4" data-qualified-name="TrackingDb" data-source-line="7" id="part4-lifeline"><g><title>Tracking DB</title><rect fill="#000000" fill-opacity="0.00000" height="486.125" width="8" x="932.2305" y="118.5938"/><line style="stroke:#181818;stroke-width:0.5;stroke-dasharray:5,5;" x1="935.6426" x2="935.6426" y1="118.5938" y2="604.7188"/></g></g><g class="participant-lifeline" data-entity-uid="part5" data-qualified-name="Notification" data-source-line="8" id="part5-lifeline"><g><title>Notification Service</title><rect fill="#000000" fill-opacity="0.00000" height="486.125" width="8" x="1063.0786" y="118.5938"/><line style="stroke:#181818;stroke-width:0.5;stroke-dasharray:5,5;" x1="1066.8184" x2="1066.8184" y1="118.5938" y2="604.7188"/></g></g><g class="participant-lifeline" data-entity-uid="part6" data-qualified-name="NotificationDb" data-source-line="9" id="part6-lifeline"><g><title>Notification DB</title><rect fill="#000000" fill-opacity="0.00000" height="486.125" width="8" x="1353.8823" y="118.5938"/><line style="stroke:#181818;stroke-width:0.5;stroke-dasharray:5,5;" x1="1357.3003" x2="1357.3003" y1="118.5938" y2="604.7188"/></g></g><g class="participant-lifeline" data-entity-uid="part7" data-qualified-name="Comprador" data-source-line="10" id="part7-lifeline"><g><title>Buyer</title><rect fill="#000000" fill-opacity="0.00000" height="486.125" width="8" x="1443.0303" y="118.5938"/><line style="stroke:#181818;stroke-width:0.5;stroke-dasharray:5,5;" x1="1446.4644" x2="1446.4644" y1="118.5938" y2="604.7188"/></g></g><g class="participant participant-head" data-entity-uid="part1" data-qualified-name="Provider" data-source-line="4" id="part1-head"><rect fill="#E2E2F0" height="30.2969" rx="2.5" ry="2.5" style="stroke:#181818;stroke-width:0.5;" width="125.0361" x="5" y="87.2969"/><text fill="#000000" font-family="sans-serif" font-size="14" lengthAdjust="spacing" textLength="111.0361" x="12" y="107.292">Carrier/Provider</text></g><g class="participant participant-tail" data-entity-uid="part1" data-qualified-name="Provider" data-source-line="4" id="part1-tail"><rect fill="#E2E2F0" height="30.2969" rx="2.5" ry="2.5" style="stroke:#181818;stroke-width:0.5;" width="125.0361" x="5" y="603.7188"/><text fill="#000000" font-family="sans-serif" font-size="14" lengthAdjust="spacing" textLength="111.0361" x="12" y="623.7139">Carrier/Provider</text></g><g class="participant participant-head" data-entity-uid="part2" data-qualified-name="Kafka" data-source-line="5" id="part2-head"><path d="M326.7109,92.2969 L376.0859,92.2969 C381.0859,92.2969 381.0859,105.4453 381.0859,105.4453 C381.0859,105.4453 381.0859,118.5938 376.0859,118.5938 L326.7109,118.5938 C321.7109,118.5938 321.7109,105.4453 321.7109,105.4453 C321.7109,105.4453 321.7109,92.2969 326.7109,92.2969" fill="#E2E2F0" style="stroke:#181818;stroke-width:0.5;"/><path d="M376.0859,92.2969 C371.0859,92.2969 371.0859,105.4453 371.0859,105.4453 C371.0859,118.5938 376.0859,118.5938 376.0859,118.5938" fill="none" style="stroke:#181818;stroke-width:0.5;"/><text fill="#000000" font-family="sans-serif" font-size="14" lengthAdjust="spacing" textLength="39.375" x="326.7109" y="110.292">Kafka</text></g><g class="participant participant-tail" data-entity-uid="part2" data-qualified-name="Kafka" data-source-line="5" id="part2-tail"><path d="M326.7109,603.7188 L376.0859,603.7188 C381.0859,603.7188 381.0859,616.8672 381.0859,616.8672 C381.0859,616.8672 381.0859,630.0156 376.0859,630.0156 L326.7109,630.0156 C321.7109,630.0156 321.7109,616.8672 321.7109,616.8672 C321.7109,616.8672 321.7109,603.7188 326.7109,603.7188" fill="#E2E2F0" style="stroke:#181818;stroke-width:0.5;"/><path d="M376.0859,603.7188 C371.0859,603.7188 371.0859,616.8672 371.0859,616.8672 C371.0859,630.0156 376.0859,630.0156 376.0859,630.0156" fill="none" style="stroke:#181818;stroke-width:0.5;"/><text fill="#000000" font-family="sans-serif" font-size="14" lengthAdjust="spacing" textLength="39.375" x="326.7109" y="621.7139">Kafka</text></g><g class="participant participant-head" data-entity-uid="part3" data-qualified-name="Tracking" data-source-line="6" id="part3-head"><rect fill="#E2E2F0" height="30.2969" rx="2.5" ry="2.5" style="stroke:#181818;stroke-width:0.5;" width="130.5322" x="592.5322" y="87.2969"/><text fill="#000000" font-family="sans-serif" font-size="14" lengthAdjust="spacing" textLength="116.5322" x="599.5322" y="107.292">Tracking Service</text></g><g class="participant participant-tail" data-entity-uid="part3" data-qualified-name="Tracking" data-source-line="6" id="part3-tail"><rect fill="#E2E2F0" height="30.2969" rx="2.5" ry="2.5" style="stroke:#181818;stroke-width:0.5;" width="130.5322" x="592.5322" y="603.7188"/><text fill="#000000" font-family="sans-serif" font-size="14" lengthAdjust="spacing" textLength="116.5322" x="599.5322" y="623.7139">Tracking Service</text></g><g class="participant participant-head" data-entity-uid="part4" data-qualified-name="TrackingDb" data-source-line="7" id="part4-head"><text fill="#000000" font-family="sans-serif" font-size="14" lengthAdjust="spacing" textLength="85.1758" x="890.6426" y="115.292">Tracking DB</text><path d="M918.2305,66.2969 C918.2305,56.2969 936.2305,56.2969 936.2305,56.2969 C936.2305,56.2969 954.2305,56.2969 954.2305,66.2969 L954.2305,92.2969 C954.2305,102.2969 936.2305,102.2969 936.2305,102.2969 C936.2305,102.2969 918.2305,102.2969 918.2305,92.2969 L918.2305,66.2969" fill="#E2E2F0" style="stroke:#181818;stroke-width:0.5;"/><path d="M918.2305,66.2969 C918.2305,76.2969 936.2305,76.2969 936.2305,76.2969 C936.2305,76.2969 954.2305,76.2969 954.2305,66.2969" fill="none" style="stroke:#181818;stroke-width:0.5;"/></g><g class="participant participant-tail" data-entity-uid="part4" data-qualified-name="TrackingDb" data-source-line="7" id="part4-tail"><text fill="#000000" font-family="sans-serif" font-size="14" lengthAdjust="spacing" textLength="85.1758" x="890.6426" y="616.7139">Tracking DB</text><path d="M918.2305,630.0156 C918.2305,620.0156 936.2305,620.0156 936.2305,620.0156 C936.2305,620.0156 954.2305,620.0156 954.2305,630.0156 L954.2305,656.0156 C954.2305,666.0156 936.2305,666.0156 936.2305,666.0156 C936.2305,666.0156 918.2305,666.0156 918.2305,656.0156 L918.2305,630.0156" fill="#E2E2F0" style="stroke:#181818;stroke-width:0.5;"/><path d="M918.2305,630.0156 C918.2305,640.0156 936.2305,640.0156 936.2305,640.0156 C936.2305,640.0156 954.2305,640.0156 954.2305,630.0156" fill="none" style="stroke:#181818;stroke-width:0.5;"/></g><g class="participant participant-head" data-entity-uid="part5" data-qualified-name="Notification" data-source-line="8" id="part5-head"><rect fill="#E2E2F0" height="30.2969" rx="2.5" ry="2.5" style="stroke:#181818;stroke-width:0.5;" width="150.5205" x="991.8184" y="87.2969"/><text fill="#000000" font-family="sans-serif" font-size="14" lengthAdjust="spacing" textLength="136.5205" x="998.8184" y="107.292">Notification Service</text></g><g class="participant participant-tail" data-entity-uid="part5" data-qualified-name="Notification" data-source-line="8" id="part5-tail"><rect fill="#E2E2F0" height="30.2969" rx="2.5" ry="2.5" style="stroke:#181818;stroke-width:0.5;" width="150.5205" x="991.8184" y="603.7188"/><text fill="#000000" font-family="sans-serif" font-size="14" lengthAdjust="spacing" textLength="136.5205" x="998.8184" y="623.7139">Notification Service</text></g><g class="participant participant-head" data-entity-uid="part6" data-qualified-name="NotificationDb" data-source-line="9" id="part6-head"><text fill="#000000" font-family="sans-serif" font-size="14" lengthAdjust="spacing" textLength="105.1641" x="1302.3003" y="115.292">Notification DB</text><path d="M1339.8823,66.2969 C1339.8823,56.2969 1357.8823,56.2969 1357.8823,56.2969 C1357.8823,56.2969 1375.8823,56.2969 1375.8823,66.2969 L1375.8823,92.2969 C1375.8823,102.2969 1357.8823,102.2969 1357.8823,102.2969 C1357.8823,102.2969 1339.8823,102.2969 1339.8823,92.2969 L1339.8823,66.2969" fill="#E2E2F0" style="stroke:#181818;stroke-width:0.5;"/><path d="M1339.8823,66.2969 C1339.8823,76.2969 1357.8823,76.2969 1357.8823,76.2969 C1357.8823,76.2969 1375.8823,76.2969 1375.8823,66.2969" fill="none" style="stroke:#181818;stroke-width:0.5;"/></g><g class="participant participant-tail" data-entity-uid="part6" data-qualified-name="NotificationDb" data-source-line="9" id="part6-tail"><text fill="#000000" font-family="sans-serif" font-size="14" lengthAdjust="spacing" textLength="105.1641" x="1302.3003" y="616.7139">Notification DB</text><path d="M1339.8823,630.0156 C1339.8823,620.0156 1357.8823,620.0156 1357.8823,620.0156 C1357.8823,620.0156 1375.8823,620.0156 1375.8823,630.0156 L1375.8823,656.0156 C1375.8823,666.0156 1357.8823,666.0156 1357.8823,666.0156 C1357.8823,666.0156 1339.8823,666.0156 1339.8823,656.0156 L1339.8823,630.0156" fill="#E2E2F0" style="stroke:#181818;stroke-width:0.5;"/><path d="M1339.8823,630.0156 C1339.8823,640.0156 1357.8823,640.0156 1357.8823,640.0156 C1357.8823,640.0156 1375.8823,640.0156 1375.8823,630.0156" fill="none" style="stroke:#181818;stroke-width:0.5;"/></g><g class="participant participant-head" data-entity-uid="part7" data-qualified-name="Comprador" data-source-line="10" id="part7-head"><text fill="#000000" font-family="sans-serif" font-size="14" lengthAdjust="spacing" textLength="41.1318" x="1423.4644" y="115.292">Buyer</text><ellipse cx="1447.0303" cy="50.7969" fill="#E2E2F0" rx="8" ry="8" style="stroke:#181818;stroke-width:0.5;"/><path d="M1447.0303,58.7969 L1447.0303,85.7969 M1434.0303,66.7969 L1460.0303,66.7969 M1447.0303,85.7969 L1434.0303,100.7969 M1447.0303,85.7969 L1460.0303,100.7969" fill="none" style="stroke:#181818;stroke-width:0.5;"/></g><g class="participant participant-tail" data-entity-uid="part7" data-qualified-name="Comprador" data-source-line="10" id="part7-tail"><text fill="#000000" font-family="sans-serif" font-size="14" lengthAdjust="spacing" textLength="41.1318" x="1423.4644" y="616.7139">Buyer</text><ellipse cx="1447.0303" cy="628.5156" fill="#E2E2F0" rx="8" ry="8" style="stroke:#181818;stroke-width:0.5;"/><path d="M1447.0303,636.5156 L1447.0303,663.5156 M1434.0303,644.5156 L1460.0303,644.5156 M1447.0303,663.5156 L1434.0303,678.5156 M1447.0303,663.5156 L1460.0303,678.5156" fill="none" style="stroke:#181818;stroke-width:0.5;"/></g><g><title>Tracking Service</title><rect fill="#FFFFFF" height="145.6641" style="stroke:#181818;stroke-width:1;" width="10" x="652.7983" y="178.8594"/></g><g><title>Notification Service</title><rect fill="#FFFFFF" height="203.9297" style="stroke:#181818;stroke-width:1;" width="10" x="1062.0786" y="353.6563"/></g><g class="message" data-entity-1="part1" data-entity-2="part2" data-source-line="12" id="msg1"><polygon fill="#181818" points="339.3984,145.7266,349.3984,149.7266,339.3984,153.7266,343.3984,149.7266" style="stroke:#181818;stroke-width:1;stroke-linejoin:miter;stroke-miterlimit:10;"/><line style="stroke:#181818;stroke-width:1;" x1="67.5181" x2="345.3984" y1="149.7266" y2="149.7266"/><text fill="#000000" font-family="sans-serif" font-size="13" font-weight="700" lengthAdjust="spacing" textLength="9.0454" x="74.5181" y="144.6606">1</text><text fill="#000000" font-family="sans-serif" font-size="13" lengthAdjust="spacing" textLength="246.835" x="87.5635" y="144.6606">CarrierTrackingEventIntegrationEvent</text></g><g class="message" data-entity-1="part2" data-entity-2="part3" data-source-line="13" id="msg2"><polygon fill="#181818" points="640.7983,174.8594,650.7983,178.8594,640.7983,182.8594,644.7983,178.8594" style="stroke:#181818;stroke-width:1;stroke-linejoin:miter;stroke-miterlimit:10;"/><line style="stroke:#181818;stroke-width:1;" x1="351.3984" x2="646.7983" y1="178.8594" y2="178.8594"/><text fill="#000000" font-family="sans-serif" font-size="13" font-weight="700" lengthAdjust="spacing" textLength="9.0454" x="358.3984" y="173.7935">2</text><text fill="#000000" font-family="sans-serif" font-size="13" lengthAdjust="spacing" textLength="187.4717" x="371.4438" y="173.7935">Consome evento de tracking</text></g><g class="message" data-entity-1="part3" data-entity-2="part4" data-source-line="15" id="msg3"><polygon fill="#181818" points="924.2305,203.9922,934.2305,207.9922,924.2305,211.9922,928.2305,207.9922" style="stroke:#181818;stroke-width:1;stroke-linejoin:miter;stroke-miterlimit:10;"/><line style="stroke:#181818;stroke-width:1;" x1="662.7983" x2="930.2305" y1="207.9922" y2="207.9922"/><text fill="#000000" font-family="sans-serif" font-size="13" font-weight="700" lengthAdjust="spacing" textLength="9.0454" x="669.7983" y="202.9263">3</text><text fill="#000000" font-family="sans-serif" font-size="13" lengthAdjust="spacing" textLength="189.3569" x="682.8438" y="202.9263">Verifica inbox por messageId</text></g><g class="message" data-entity-1="part3" data-entity-2="part4" data-source-line="16" id="msg4"><polygon fill="#181818" points="924.2305,233.125,934.2305,237.125,924.2305,241.125,928.2305,237.125" style="stroke:#181818;stroke-width:1;stroke-linejoin:miter;stroke-miterlimit:10;"/><line style="stroke:#181818;stroke-width:1;" x1="662.7983" x2="930.2305" y1="237.125" y2="237.125"/><text fill="#000000" font-family="sans-serif" font-size="13" font-weight="700" lengthAdjust="spacing" textLength="9.0454" x="669.7983" y="232.0591">4</text><text fill="#000000" font-family="sans-serif" font-size="13" lengthAdjust="spacing" textLength="236.3867" x="682.8438" y="232.0591">Verifica duplicidade providerEventId</text></g><g class="message" data-entity-1="part3" data-entity-2="part4" data-source-line="17" id="msg5"><polygon fill="#181818" points="924.2305,262.2578,934.2305,266.2578,924.2305,270.2578,928.2305,266.2578" style="stroke:#181818;stroke-width:1;stroke-linejoin:miter;stroke-miterlimit:10;"/><line style="stroke:#181818;stroke-width:1;" x1="662.7983" x2="930.2305" y1="266.2578" y2="266.2578"/><text fill="#000000" font-family="sans-serif" font-size="13" font-weight="700" lengthAdjust="spacing" textLength="9.0454" x="669.7983" y="261.1919">5</text><text fill="#000000" font-family="sans-serif" font-size="13" lengthAdjust="spacing" textLength="148.8398" x="682.8438" y="261.1919">Persiste TrackingEvent</text></g><g class="message" data-entity-1="part3" data-entity-2="part4" data-source-line="18" id="msg6"><polygon fill="#181818" points="924.2305,291.3906,934.2305,295.3906,924.2305,299.3906,928.2305,295.3906" style="stroke:#181818;stroke-width:1;stroke-linejoin:miter;stroke-miterlimit:10;"/><line style="stroke:#181818;stroke-width:1;" x1="662.7983" x2="930.2305" y1="295.3906" y2="295.3906"/><text fill="#000000" font-family="sans-serif" font-size="13" font-weight="700" lengthAdjust="spacing" textLength="9.0454" x="669.7983" y="290.3247">6</text><text fill="#000000" font-family="sans-serif" font-size="13" lengthAdjust="spacing" textLength="174.7256" x="682.8438" y="290.3247">Atualiza ShipmentTracking</text></g><g class="message" data-entity-1="part3" data-entity-2="part2" data-source-line="19" id="msg7"><polygon fill="#181818" points="362.3984,320.5234,352.3984,324.5234,362.3984,328.5234,358.3984,324.5234" style="stroke:#181818;stroke-width:1;stroke-linejoin:miter;stroke-miterlimit:10;"/><line style="stroke:#181818;stroke-width:1;" x1="356.3984" x2="656.7983" y1="324.5234" y2="324.5234"/><text fill="#000000" font-family="sans-serif" font-size="13" font-weight="700" lengthAdjust="spacing" textLength="9.0454" x="368.3984" y="319.4575">7</text><text fill="#000000" font-family="sans-serif" font-size="13" lengthAdjust="spacing" textLength="264.3545" x="381.4438" y="319.4575">TrackingStatusChangedIntegrationEvent</text></g><g class="message" data-entity-1="part2" data-entity-2="part5" data-source-line="22" id="msg8"><polygon fill="#181818" points="1050.0786,349.6563,1060.0786,353.6563,1050.0786,357.6563,1054.0786,353.6563" style="stroke:#181818;stroke-width:1;stroke-linejoin:miter;stroke-miterlimit:10;"/><line style="stroke:#181818;stroke-width:1;" x1="351.3984" x2="1056.0786" y1="353.6563" y2="353.6563"/><text fill="#000000" font-family="sans-serif" font-size="13" font-weight="700" lengthAdjust="spacing" textLength="9.0454" x="358.3984" y="348.5903">8</text><text fill="#000000" font-family="sans-serif" font-size="13" lengthAdjust="spacing" textLength="329.145" x="371.4438" y="348.5903">Consome TrackingStatusChangedIntegrationEvent</text></g><g class="message" data-entity-1="part5" data-entity-2="part6" data-source-line="24" id="msg9"><polygon fill="#181818" points="1345.8823,378.7891,1355.8823,382.7891,1345.8823,386.7891,1349.8823,382.7891" style="stroke:#181818;stroke-width:1;stroke-linejoin:miter;stroke-miterlimit:10;"/><line style="stroke:#181818;stroke-width:1;" x1="1072.0786" x2="1351.8823" y1="382.7891" y2="382.7891"/><text fill="#000000" font-family="sans-serif" font-size="13" font-weight="700" lengthAdjust="spacing" textLength="9.0454" x="1079.0786" y="377.7231">9</text><text fill="#000000" font-family="sans-serif" font-size="13" lengthAdjust="spacing" textLength="189.3569" x="1092.124" y="377.7231">Verifica inbox por messageId</text></g><g class="message" data-entity-1="part5" data-entity-2="part6" data-source-line="25" id="msg10"><polygon fill="#181818" points="1345.8823,407.9219,1355.8823,411.9219,1345.8823,415.9219,1349.8823,411.9219" style="stroke:#181818;stroke-width:1;stroke-linejoin:miter;stroke-miterlimit:10;"/><line style="stroke:#181818;stroke-width:1;" x1="1072.0786" x2="1351.8823" y1="411.9219" y2="411.9219"/><text fill="#000000" font-family="sans-serif" font-size="13" font-weight="700" lengthAdjust="spacing" textLength="18.0908" x="1079.0786" y="406.856">10</text><text fill="#000000" font-family="sans-serif" font-size="13" lengthAdjust="spacing" textLength="239.7129" x="1101.1694" y="406.856">Carrega prefer&#234;ncias do destinat&#225;rio</text></g><g class="message" data-entity-1="part5" data-entity-2="part6" data-source-line="26" id="msg11"><polygon fill="#181818" points="1345.8823,437.0547,1355.8823,441.0547,1345.8823,445.0547,1349.8823,441.0547" style="stroke:#181818;stroke-width:1;stroke-linejoin:miter;stroke-miterlimit:10;"/><line style="stroke:#181818;stroke-width:1;" x1="1072.0786" x2="1351.8823" y1="441.0547" y2="441.0547"/><text fill="#000000" font-family="sans-serif" font-size="13" font-weight="700" lengthAdjust="spacing" textLength="18.0908" x="1079.0786" y="435.9888">11</text><text fill="#000000" font-family="sans-serif" font-size="13" lengthAdjust="spacing" textLength="177.8423" x="1101.1694" y="435.9888">Cria Notification + Delivery</text></g><g class="message" data-entity-1="part5" data-entity-2="part1" data-source-line="27" id="msg12"><polygon fill="#181818" points="78.5181,466.1875,68.5181,470.1875,78.5181,474.1875,74.5181,470.1875" style="stroke:#181818;stroke-width:1;stroke-linejoin:miter;stroke-miterlimit:10;"/><line style="stroke:#181818;stroke-width:1;" x1="72.5181" x2="1061.0786" y1="470.1875" y2="470.1875"/><text fill="#000000" font-family="sans-serif" font-size="13" font-weight="700" lengthAdjust="spacing" textLength="18.0908" x="84.5181" y="465.1216">12</text><text fill="#000000" font-family="sans-serif" font-size="13" lengthAdjust="spacing" textLength="253.4683" x="106.6089" y="465.1216">Envia mensagem no canal configurado</text></g><g class="message" data-entity-1="part1" data-entity-2="part5" data-source-line="28" id="msg13"><polygon fill="#181818" points="1050.0786,495.3203,1060.0786,499.3203,1050.0786,503.3203,1054.0786,499.3203" style="stroke:#181818;stroke-width:1;stroke-linejoin:miter;stroke-miterlimit:10;"/><line style="stroke:#181818;stroke-width:1;stroke-dasharray:2,2;" x1="67.5181" x2="1056.0786" y1="499.3203" y2="499.3203"/><text fill="#000000" font-family="sans-serif" font-size="13" font-weight="700" lengthAdjust="spacing" textLength="18.0908" x="74.5181" y="494.2544">13</text><text fill="#000000" font-family="sans-serif" font-size="13" lengthAdjust="spacing" textLength="60.7852" x="96.6089" y="494.2544">Accepted</text></g><g class="message" data-entity-1="part5" data-entity-2="part6" data-source-line="29" id="msg14"><polygon fill="#181818" points="1345.8823,524.4531,1355.8823,528.4531,1345.8823,532.4531,1349.8823,528.4531" style="stroke:#181818;stroke-width:1;stroke-linejoin:miter;stroke-miterlimit:10;"/><line style="stroke:#181818;stroke-width:1;" x1="1072.0786" x2="1351.8823" y1="528.4531" y2="528.4531"/><text fill="#000000" font-family="sans-serif" font-size="13" font-weight="700" lengthAdjust="spacing" textLength="18.0908" x="1079.0786" y="523.3872">14</text><text fill="#000000" font-family="sans-serif" font-size="13" lengthAdjust="spacing" textLength="200.7446" x="1101.1694" y="523.3872">Marca delivery como Accepted</text></g><g class="message" data-entity-1="part5" data-entity-2="part2" data-source-line="30" id="msg15"><polygon fill="#181818" points="362.3984,553.5859,352.3984,557.5859,362.3984,561.5859,358.3984,557.5859" style="stroke:#181818;stroke-width:1;stroke-linejoin:miter;stroke-miterlimit:10;"/><line style="stroke:#181818;stroke-width:1;" x1="356.3984" x2="1066.0786" y1="557.5859" y2="557.5859"/><text fill="#000000" font-family="sans-serif" font-size="13" font-weight="700" lengthAdjust="spacing" textLength="18.0908" x="368.3984" y="552.52">15</text><text fill="#000000" font-family="sans-serif" font-size="13" lengthAdjust="spacing" textLength="244.2515" x="390.4893" y="552.52">NotificationAcceptedIntegrationEvent</text></g><g class="message" data-entity-1="part5" data-entity-2="part7" data-source-line="33" id="msg16"><polygon fill="#181818" points="1435.0303,582.7188,1445.0303,586.7188,1435.0303,590.7188,1439.0303,586.7188" style="stroke:#181818;stroke-width:1;stroke-linejoin:miter;stroke-miterlimit:10;"/><line style="stroke:#181818;stroke-width:1;stroke-dasharray:2,2;" x1="1067.0786" x2="1441.0303" y1="586.7188" y2="586.7188"/><text fill="#000000" font-family="sans-serif" font-size="13" font-weight="700" lengthAdjust="spacing" textLength="18.0908" x="1074.0786" y="581.6528">16</text><text fill="#000000" font-family="sans-serif" font-size="13" lengthAdjust="spacing" textLength="202.3188" x="1096.1694" y="581.6528">Recebe atualiza&#231;&#227;o de entrega</text></g><?plantuml-src ZLJ1Rjim3BtxAuXSYs8xx9J3W3PfWMBeK2p3xhJ4k4HjoQCfeztV33iCs6_anoOxLc8tpRoRHJu-aOzFLjQIuFq7k8IlWkQ9NG44dxtobWtkVkz--PYwBSEpXrig-KUMOL3lGfMJP3MAik4QdS9YXI9Cykv1VCkMP07OG3fatmC5WiKdt3vXd-c_fWo73ZOaBHlgSIcOMLJCiQ4HRdqzWQppALyQGzcx2USuCUATu0VkSIpoer4lS1rUIBhiobUreFMIPMbIkFoudsq9WoAflPkMdDuvfK9wklwSzTYkAC5YdNUDhmYe0tYm19f4YFTpYqf7MGvYZ2ZM-HA-aVID0xlSFqCTswweQR2WEpjVP4DTHXqjnilhOR9z_-UB7qWQRaQzxGSy1x_IWD5G29j7hgk8V7EaGSeKsYXgQ5QFw0go9rfQEjNdAF1ubKUH_u_vm3knpiGmhswOtS5SSUSUAZ3AJrkItHzdE3hETdveb1tgxgUmdwSHnaaGBc0TNt9Byd9Id4oyX1lNnhgubgxR2fm7WmvBCDvjkGYTwKUMFr7toXYgbUQdl4Vfx3Oq5EahVxvuCCCudB3_yi9aPwz88-lX4I_X2ndA2N2mvlx_5vz09EnsaVq5?></g></svg>