<svg xmlns="http://www.w3.org/2000/svg" xmlns:xlink="http://www.w3.org/1999/xlink" version="1.1" data-diagram-type="SEQUENCE" style="width:2548px;height:973px;background:#FFFFFF;" width="2548px" height="973px" viewBox="0 0 2548 973" zoomAndPan="magnify" preserveAspectRatio="none" contentStyleType="text/css"><?plantuml 1.2026.8?><defs/><g font-family="sans-serif" lengthAdjust="spacing"><g class="title" data-source-line="1"><text x="1026.324" y="27.995" fill="#000" font-size="14" textLength="493.951" font-weight="700">12 - Fluxo Alternativo - Capacidade de Fulfillment Indisponível</text></g><rect x="17.566" y="310.391" width="1567.938" height="220.734" fill="none" style="stroke:#000;stroke-width:1.5;"/><g><title>Buyer</title><rect x="30.066" y="123.594" width="8" height="762.859" fill="#000" fill-opacity="0"/><line x1="33.566" y1="123.594" x2="33.566" y2="886.453" style="stroke:#181818;stroke-width:0.5;stroke-dasharray:5,5;"/></g><g><title>Marketplace Web</title><rect x="323.874" y="123.594" width="8" height="762.859" fill="#000" fill-opacity="0"/><line x1="327.374" y1="123.594" x2="327.374" y2="886.453" style="stroke:#181818;stroke-width:0.5;stroke-dasharray:5,5;"/></g><g><title>Marketplace BFF</title><rect x="730.632" y="123.594" width="8" height="762.859" fill="#000" fill-opacity="0"/><line x1="734.132" y1="123.594" x2="734.132" y2="886.453" style="stroke:#181818;stroke-width:0.5;stroke-dasharray:5,5;"/></g><g><title>Shipping Promise Service</title><rect x="1243.523" y="123.594" width="8" height="762.859" fill="#000" fill-opacity="0"/><line x1="1247.023" y1="123.594" x2="1247.023" y2="886.453" style="stroke:#181818;stroke-width:0.5;stroke-dasharray:5,5;"/></g><g><title>Fulfillment Center Service</title><rect x="1566.004" y="123.594" width="8" height="762.859" fill="#000" fill-opacity="0"/><line x1="1569.504" y1="123.594" x2="1569.504" y2="886.453" style="stroke:#181818;stroke-width:0.5;stroke-dasharray:5,5;"/></g><g><title>Inventory Service</title><rect x="1790.868" y="123.594" width="8" height="762.859" fill="#000" fill-opacity="0"/><line x1="1794.368" y1="123.594" x2="1794.368" y2="886.453" style="stroke:#181818;stroke-width:0.5;stroke-dasharray:5,5;"/></g><g><title>Routing Service</title><rect x="1931.646" y="123.594" width="8" height="762.859" fill="#000" fill-opacity="0"/><line x1="1935.146" y1="123.594" x2="1935.146" y2="886.453" style="stroke:#181818;stroke-width:0.5;stroke-dasharray:5,5;"/></g><g><title>Kafka</title><rect x="2033.582" y="123.594" width="8" height="762.859" fill="#000" fill-opacity="0"/><line x1="2037.082" y1="123.594" x2="2037.082" y2="886.453" style="stroke:#181818;stroke-width:0.5;stroke-dasharray:5,5;"/></g><g><title>Order Service</title><rect x="2337.667" y="123.594" width="8" height="762.859" fill="#000" fill-opacity="0"/><line x1="2341.167" y1="123.594" x2="2341.167" y2="886.453" style="stroke:#181818;stroke-width:0.5;stroke-dasharray:5,5;"/></g><text x="10" y="120.292" fill="#000" font-size="14" textLength="41.132">Buyer</text><ellipse cx="33.566" cy="55.797" rx="8" ry="8" fill="#E2E2F0" style="stroke:#181818;stroke-width:0.5;"/><path d="M33.566,63.797 L33.566,90.797 M20.566,71.797 L46.566,71.797 M33.566,90.797 L20.566,105.797 M33.566,90.797 L46.566,105.797" style="stroke:#181818;stroke-width:0.5;" fill="none"/><rect x="259.333" y="92.297" width="136.083" height="30.297" fill="#E2E2F0" style="stroke:#181818;stroke-width:0.5;" rx="2.5" ry="2.5"/><text x="266.333" y="112.292" fill="#000" font-size="14" textLength="122.083">Marketplace Web</text><rect x="668.907" y="92.297" width="130.45" height="30.297" fill="#E2E2F0" style="stroke:#181818;stroke-width:0.5;" rx="2.5" ry="2.5"/><text x="675.907" y="112.292" fill="#000" font-size="14" textLength="116.45">Marketplace BFF</text><rect x="1151.067" y="92.297" width="191.912" height="30.297" fill="#E2E2F0" style="stroke:#181818;stroke-width:0.5;" rx="2.5" ry="2.5"/><text x="1158.067" y="112.292" fill="#000" font-size="14" textLength="177.912">Shipping Promise Service</text><rect x="1471.61" y="92.297" width="195.788" height="30.297" fill="#E2E2F0" style="stroke:#181818;stroke-width:0.5;" rx="2.5" ry="2.5"/><text x="1478.61" y="112.292" fill="#000" font-size="14" textLength="181.788">Fulfillment Center Service</text><rect x="1725.837" y="92.297" width="137.061" height="30.297" fill="#E2E2F0" style="stroke:#181818;stroke-width:0.5;" rx="2.5" ry="2.5"/><text x="1732.837" y="112.292" fill="#000" font-size="14" textLength="123.061">Inventory Service</text><rect x="1872.898" y="92.297" width="124.496" height="30.297" fill="#E2E2F0" style="stroke:#181818;stroke-width:0.5;" rx="2.5" ry="2.5"/><text x="1879.898" y="112.292" fill="#000" font-size="14" textLength="110.496">Routing Service</text><path d="M2012.394,97.297 L2061.769,97.297 C2066.769,97.297 2066.769,110.445 2066.769,110.445 C2066.769,110.445 2066.769,123.594 2061.769,123.594 L2012.394,123.594 C2007.394,123.594 2007.394,110.445 2007.394,110.445 C2007.394,110.445 2007.394,97.297 2012.394,97.297" style="stroke:#181818;stroke-width:0.5;" fill="#E2E2F0"/><path d="M2061.769,97.297 C2056.769,97.297 2056.769,110.445 2056.769,110.445 C2056.769,123.594 2061.769,123.594 2061.769,123.594" style="stroke:#181818;stroke-width:0.5;" fill="none"/><text x="2012.394" y="115.292" fill="#000" font-size="14" textLength="39.375">Kafka</text><rect x="2286.055" y="92.297" width="110.223" height="30.297" fill="#E2E2F0" style="stroke:#181818;stroke-width:0.5;" rx="2.5" ry="2.5"/><text x="2293.055" y="112.292" fill="#000" font-size="14" textLength="96.223">Order Service</text><text x="10" y="899.448" fill="#000" font-size="14" textLength="41.132">Buyer</text><ellipse cx="33.566" cy="911.25" rx="8" ry="8" fill="#E2E2F0" style="stroke:#181818;stroke-width:0.5;"/><path d="M33.566,919.25 L33.566,946.25 M20.566,927.25 L46.566,927.25 M33.566,946.25 L20.566,961.25 M33.566,946.25 L46.566,961.25" style="stroke:#181818;stroke-width:0.5;" fill="none"/><rect x="259.333" y="886.453" width="136.083" height="30.297" fill="#E2E2F0" style="stroke:#181818;stroke-width:0.5;" rx="2.5" ry="2.5"/><text x="266.333" y="906.448" fill="#000" font-size="14" textLength="122.083">Marketplace Web</text><rect x="668.907" y="886.453" width="130.45" height="30.297" fill="#E2E2F0" style="stroke:#181818;stroke-width:0.5;" rx="2.5" ry="2.5"/><text x="675.907" y="906.448" fill="#000" font-size="14" textLength="116.45">Marketplace BFF</text><rect x="1151.067" y="886.453" width="191.912" height="30.297" fill="#E2E2F0" style="stroke:#181818;stroke-width:0.5;" rx="2.5" ry="2.5"/><text x="1158.067" y="906.448" fill="#000" font-size="14" textLength="177.912">Shipping Promise Service</text><rect x="1471.61" y="886.453" width="195.788" height="30.297" fill="#E2E2F0" style="stroke:#181818;stroke-width:0.5;" rx="2.5" ry="2.5"/><text x="1478.61" y="906.448" fill="#000" font-size="14" textLength="181.788">Fulfillment Center Service</text><rect x="1725.837" y="886.453" width="137.061" height="30.297" fill="#E2E2F0" style="stroke:#181818;stroke-width:0.5;" rx="2.5" ry="2.5"/><text x="1732.837" y="906.448" fill="#000" font-size="14" textLength="123.061">Inventory Service</text><rect x="1872.898" y="886.453" width="124.496" height="30.297" fill="#E2E2F0" style="stroke:#181818;stroke-width:0.5;" rx="2.5" ry="2.5"/><text x="1879.898" y="906.448" fill="#000" font-size="14" textLength="110.496">Routing Service</text><path d="M2012.394,886.453 L2061.769,886.453 C2066.769,886.453 2066.769,899.602 2066.769,899.602 C2066.769,899.602 2066.769,912.75 2061.769,912.75 L2012.394,912.75 C2007.394,912.75 2007.394,899.602 2007.394,899.602 C2007.394,899.602 2007.394,886.453 2012.394,886.453" style="stroke:#181818;stroke-width:0.5;" fill="#E2E2F0"/><path d="M2061.769,886.453 C2056.769,886.453 2056.769,899.602 2056.769,899.602 C2056.769,912.75 2061.769,912.75 2061.769,912.75" style="stroke:#181818;stroke-width:0.5;" fill="none"/><text x="2012.394" y="904.448" fill="#000" font-size="14" textLength="39.375">Kafka</text><rect x="2286.055" y="886.453" width="110.223" height="30.297" fill="#E2E2F0" style="stroke:#181818;stroke-width:0.5;" rx="2.5" ry="2.5"/><text x="2293.055" y="906.448" fill="#000" font-size="14" textLength="96.223">Order Service</text><polygon points="315.374,148.727,325.374,152.727,315.374,156.727,319.374,152.727" fill="#181818" style="stroke:#181818;stroke-width:1;stroke-linejoin:miter;stroke-miterlimit:10;"/><line x1="33.566" y1="152.727" x2="321.374" y2="152.727" style="stroke:#181818;stroke-width:1;"/><text x="40.566" y="147.661" fill="#000" font-size="13" font-weight="700">1</text><text x="53.611" y="147.661" fill="#000" font-size="13" textLength="163.776">Solicita cotação com CEP</text><polygon points="722.132,177.859,732.132,181.859,722.132,185.859,726.132,181.859" fill="#181818" style="stroke:#181818;stroke-width:1;stroke-linejoin:miter;stroke-miterlimit:10;"/><line x1="327.374" y1="181.859" x2="728.132" y2="181.859" style="stroke:#181818;stroke-width:1;"/><text x="334.374" y="176.793" fill="#000" font-size="13" font-weight="700">2</text><text x="347.419" y="176.793" fill="#000" font-size="13" textLength="369.713">GET /api/web/v1/products/{skuId}/page?zipCode={cep}</text><polygon points="1235.023,206.992,1245.023,210.992,1235.023,214.992,1239.023,210.992" fill="#181818" style="stroke:#181818;stroke-width:1;stroke-linejoin:miter;stroke-miterlimit:10;"/><line x1="734.132" y1="210.992" x2="1241.023" y2="210.992" style="stroke:#181818;stroke-width:1;"/><text x="741.132" y="205.926" fill="#000" font-size="13" font-weight="700">3</text><text x="754.178" y="205.926" fill="#000" font-size="13" textLength="166.448">POST /shipping-promises/</text><polygon points="1782.368,236.125,1792.368,240.125,1782.368,244.125,1786.368,240.125" fill="#181818" style="stroke:#181818;stroke-width:1;stroke-linejoin:miter;stroke-miterlimit:10;"/><line x1="1247.023" y1="240.125" x2="1788.368" y2="240.125" style="stroke:#181818;stroke-width:1;"/><text x="1254.023" y="235.059" fill="#000" font-size="13" font-weight="700">4</text><text x="1267.069" y="235.059" fill="#000" font-size="13" textLength="220.803">POST /inventory/availability/batch</text><polygon points="1258.023,265.258,1248.023,269.258,1258.023,273.258,1254.023,269.258" fill="#181818" style="stroke:#181818;stroke-width:1;stroke-linejoin:miter;stroke-miterlimit:10;"/><line x1="1252.023" y1="269.258" x2="1793.368" y2="269.258" style="stroke:#181818;stroke-width:1;stroke-dasharray:2,2;"/><text x="1264.023" y="264.192" fill="#000" font-size="13" font-weight="700">5</text><text x="1277.069" y="264.192" fill="#000" font-size="13" textLength="122.656">Estoque disponível</text><polygon points="1557.504,294.391,1567.504,298.391,1557.504,302.391,1561.504,298.391" fill="#181818" style="stroke:#181818;stroke-width:1;stroke-linejoin:miter;stroke-miterlimit:10;"/><line x1="1247.023" y1="298.391" x2="1563.504" y2="298.391" style="stroke:#181818;stroke-width:1;"/><text x="1254.023" y="293.325" fill="#000" font-size="13" font-weight="700">6</text><text x="1267.069" y="293.325" fill="#000" font-size="13" textLength="285.435">POST /fulfillment-centers/candidates/search</text><path d="M17.566,310.391 L82.009,310.391 L82.009,317.523 L72.009,327.523 L17.566,327.523 L17.566,310.391" style="stroke:#000;stroke-width:1.5;" fill="#EEE"/><rect x="17.566" y="310.391" width="1567.938" height="220.734" fill="none" style="stroke:#000;stroke-width:1.5;"/><text x="32.566" y="323.458" fill="#000" font-size="13" textLength="19.443" font-weight="700">alt</text><text x="97.009" y="322.601" fill="#000" font-size="11" textLength="208.919" font-weight="700">[Nenhum centro com capacidade]</text><polygon points="1258.023,354.656,1248.023,358.656,1258.023,362.656,1254.023,358.656" fill="#181818" style="stroke:#181818;stroke-width:1;stroke-linejoin:miter;stroke-miterlimit:10;"/><line x1="1252.023" y1="358.656" x2="1568.504" y2="358.656" style="stroke:#181818;stroke-width:1;stroke-dasharray:2,2;"/><text x="1264.023" y="353.59" fill="#000" font-size="13" font-weight="700">7</text><text x="1277.069" y="353.59" fill="#000" font-size="13" textLength="10.144">[]</text><polygon points="745.132,383.789,735.132,387.789,745.132,391.789,741.132,387.789" fill="#181818" style="stroke:#181818;stroke-width:1;stroke-linejoin:miter;stroke-miterlimit:10;"/><line x1="739.132" y1="387.789" x2="1246.023" y2="387.789" style="stroke:#181818;stroke-width:1;stroke-dasharray:2,2;"/><text x="751.132" y="382.723" fill="#000" font-size="13" font-weight="700">8</text><text x="764.178" y="382.723" fill="#000" font-size="13" textLength="464.204">available=false, unavailableReason="No fulfillment capacity available"</text><polygon points="338.374,412.922,328.374,416.922,338.374,420.922,334.374,416.922" fill="#181818" style="stroke:#181818;stroke-width:1;stroke-linejoin:miter;stroke-miterlimit:10;"/><line x1="332.374" y1="416.922" x2="733.132" y2="416.922" style="stroke:#181818;stroke-width:1;stroke-dasharray:2,2;"/><text x="344.374" y="411.856" fill="#000" font-size="13" font-weight="700">9</text><text x="357.419" y="411.856" fill="#000" font-size="13" textLength="138.69">Shipping indisponível</text><polygon points="44.566,442.055,34.566,446.055,44.566,450.055,40.566,446.055" fill="#181818" style="stroke:#181818;stroke-width:1;stroke-linejoin:miter;stroke-miterlimit:10;"/><line x1="38.566" y1="446.055" x2="326.374" y2="446.055" style="stroke:#181818;stroke-width:1;stroke-dasharray:2,2;"/><text x="50.566" y="440.989" fill="#000" font-size="13" textLength="18.091" font-weight="700">10</text><text x="72.657" y="440.989" fill="#000" font-size="13" textLength="247.717">Exibe produto sem entrega disponível</text><line x1="17.566" y1="455.055" x2="1585.504" y2="455.055" style="stroke:#000;stroke-width:1;stroke-dasharray:2,2;"/><text x="22.566" y="467.265" fill="#000" font-size="11" textLength="262.142" font-weight="700">[Centro retornado, mas sem janela viável]</text><polygon points="1258.023,489.992,1248.023,493.992,1258.023,497.992,1254.023,493.992" fill="#181818" style="stroke:#181818;stroke-width:1;stroke-linejoin:miter;stroke-miterlimit:10;"/><line x1="1252.023" y1="493.992" x2="1568.504" y2="493.992" style="stroke:#181818;stroke-width:1;stroke-dasharray:2,2;"/><text x="1264.023" y="488.926" fill="#000" font-size="13" textLength="18.091" font-weight="700">11</text><text x="1286.114" y="488.926" fill="#000" font-size="13" textLength="233.473">Candidatos sem janela/cutoff válido</text><polygon points="745.132,519.125,735.132,523.125,745.132,527.125,741.132,523.125" fill="#181818" style="stroke:#181818;stroke-width:1;stroke-linejoin:miter;stroke-miterlimit:10;"/><line x1="739.132" y1="523.125" x2="1246.023" y2="523.125" style="stroke:#181818;stroke-width:1;stroke-dasharray:2,2;"/><text x="751.132" y="518.059" fill="#000" font-size="13" textLength="18.091" font-weight="700">12</text><text x="773.223" y="518.059" fill="#000" font-size="13" textLength="466.8">available=false, unavailableReason="No operational window available"</text><rect x="10" y="565.691" width="2527.599" height="3" fill="#EEE" style="stroke:#EEE;stroke-width:1;"/><line x1="10" y1="565.691" x2="2537.599" y2="565.691" style="stroke:#000;stroke-width:1;"/><line x1="10" y1="568.691" x2="2537.599" y2="568.691" style="stroke:#000;stroke-width:1;"/><rect x="1099.034" y="555.125" width="349.531" height="23.133" fill="#EEE" style="stroke:#000;stroke-width:2;"/><text x="1105.034" y="571.192" fill="#000" font-size="13" textLength="331.005" font-weight="700">Falha em reserva de capacidade após pedido</text><polygon points="2329.167,605.391,2339.167,609.391,2329.167,613.391,2333.167,609.391" fill="#181818" style="stroke:#181818;stroke-width:1;stroke-linejoin:miter;stroke-miterlimit:10;"/><line x1="2037.082" y1="609.391" x2="2335.167" y2="609.391" style="stroke:#181818;stroke-width:1;"/><text x="2044.082" y="604.325" fill="#000" font-size="13" textLength="18.091" font-weight="700">13</text><text x="2066.172" y="604.325" fill="#000" font-size="13" textLength="237.872">CheckoutConfirmedIntegrationEvent</text><polygon points="2048.082,634.523,2038.082,638.523,2048.082,642.523,2044.082,638.523" fill="#181818" style="stroke:#181818;stroke-width:1;stroke-linejoin:miter;stroke-miterlimit:10;"/><line x1="2042.082" y1="638.523" x2="2340.167" y2="638.523" style="stroke:#181818;stroke-width:1;"/><text x="2054.082" y="633.458" fill="#000" font-size="13" textLength="18.091" font-weight="700">14</text><text x="2076.172" y="633.458" fill="#000" font-size="13" textLength="245.204">ReserveFulfillmentCapacityCommand</text><polygon points="1580.504,663.656,1570.504,667.656,1580.504,671.656,1576.504,667.656" fill="#181818" style="stroke:#181818;stroke-width:1;stroke-linejoin:miter;stroke-miterlimit:10;"/><line x1="1574.504" y1="667.656" x2="2036.082" y2="667.656" style="stroke:#181818;stroke-width:1;"/><text x="1586.504" y="662.59" fill="#000" font-size="13" textLength="18.091" font-weight="700">15</text><text x="1608.595" y="662.59" fill="#000" font-size="13" textLength="245.204">ReserveFulfillmentCapacityCommand</text><line x1="1569.504" y1="696.789" x2="1611.504" y2="696.789" style="stroke:#181818;stroke-width:1;"/><line x1="1611.504" y1="696.789" x2="1611.504" y2="709.789" style="stroke:#181818;stroke-width:1;"/><line x1="1570.504" y1="709.789" x2="1611.504" y2="709.789" style="stroke:#181818;stroke-width:1;"/><polygon points="1580.504,705.789,1570.504,709.789,1580.504,713.789,1576.504,709.789" fill="#181818" style="stroke:#181818;stroke-width:1;stroke-linejoin:miter;stroke-miterlimit:10;"/><text x="1576.504" y="691.723" fill="#000" font-size="13" textLength="18.091" font-weight="700">16</text><text x="1598.595" y="691.723" fill="#000" font-size="13" textLength="188.773">Capacidade esgotada no slot</text><polygon points="2025.082,734.922,2035.082,738.922,2025.082,742.922,2029.082,738.922" fill="#181818" style="stroke:#181818;stroke-width:1;stroke-linejoin:miter;stroke-miterlimit:10;"/><line x1="1569.504" y1="738.922" x2="2031.082" y2="738.922" style="stroke:#181818;stroke-width:1;"/><text x="1576.504" y="733.856" fill="#000" font-size="13" textLength="18.091" font-weight="700">17</text><text x="1598.595" y="733.856" fill="#000" font-size="13" textLength="351.051">FulfillmentCapacityReservationFailedIntegrationEvent</text><polygon points="2329.167,764.055,2339.167,768.055,2329.167,772.055,2333.167,768.055" fill="#181818" style="stroke:#181818;stroke-width:1;stroke-linejoin:miter;stroke-miterlimit:10;"/><line x1="2037.082" y1="768.055" x2="2335.167" y2="768.055" style="stroke:#181818;stroke-width:1;"/><text x="2044.082" y="762.989" fill="#000" font-size="13" textLength="18.091" font-weight="700">18</text><text x="2066.172" y="762.989" fill="#000" font-size="13" textLength="207.968">Falha de reserva de capacidade</text><line x1="2341.167" y1="797.188" x2="2383.167" y2="797.188" style="stroke:#181818;stroke-width:1;"/><line x1="2383.167" y1="797.188" x2="2383.167" y2="810.188" style="stroke:#181818;stroke-width:1;"/><line x1="2342.167" y1="810.188" x2="2383.167" y2="810.188" style="stroke:#181818;stroke-width:1;"/><polygon points="2352.167,806.188,2342.167,810.188,2352.167,814.188,2348.167,810.188" fill="#181818" style="stroke:#181818;stroke-width:1;stroke-linejoin:miter;stroke-miterlimit:10;"/><text x="2348.167" y="792.122" fill="#000" font-size="13" textLength="18.091" font-weight="700">19</text><text x="2370.257" y="792.122" fill="#000" font-size="13" textLength="160.342">Cancela pedido em saga</text><polygon points="2048.082,835.32,2038.082,839.32,2048.082,843.32,2044.082,839.32" fill="#181818" style="stroke:#181818;stroke-width:1;stroke-linejoin:miter;stroke-miterlimit:10;"/><line x1="2042.082" y1="839.32" x2="2340.167" y2="839.32" style="stroke:#181818;stroke-width:1;"/><text x="2054.082" y="834.254" fill="#000" font-size="13" textLength="18.091" font-weight="700">20</text><text x="2076.172" y="834.254" fill="#000" font-size="13" textLength="257.994">ReleaseInventoryReservationCommand</text><polygon points="2048.082,864.453,2038.082,868.453,2048.082,872.453,2044.082,868.453" fill="#181818" style="stroke:#181818;stroke-width:1;stroke-linejoin:miter;stroke-miterlimit:10;"/><line x1="2042.082" y1="868.453" x2="2340.167" y2="868.453" style="stroke:#181818;stroke-width:1;"/><text x="2054.082" y="863.387" fill="#000" font-size="13" textLength="18.091" font-weight="700">21</text><text x="2076.172" y="863.387" fill="#000" font-size="13" textLength="209.949">OrderCancelledIntegrationEvent</text><?plantuml-src fPJDRjim3CVlUWeYvmP6TmoG3QiH3yMmjcW6x33imDXCeaMMD4bscnLzc6A7dNRQ8-J5Hd_63ZBiC218REPFaVoHL9114Lo-WYaagdWqy5O5SXg3B0tROhIOoWmp0luaXLfBfNBI0Qvr9hqr-l2h92K45i7e8b-H4vW6u-2gs9C3z12Rt3hCZ1CMNP2fjCZkam_eTXIimfJW4wqcbJHP_5rpbIIrXd_7ekLMMYlr1kwSoQKdM98hPKgrkhMDFOPbnFp5UGvzadWilzObYupRZrIzTIo-DqMeaXbAMvluLb11C7cFwntMVzHFO_zRbvsaKrk4w372z3M3ci7IAFOA2Aa9UFXv-67uAOTuSIUIHILYKZDuj_W84LePFT0gAYyZwqnMfC57JtvNN6VFaSKDlVakRMmocZ-bP9y5ErR-BRiPtDqk-H3VSfxQnkuZqH5dSO-ZaylE4669Kk5AAXdsqGf3kXL7fDDXe8KFXY71SB86CPAuEtnzxE0qhJleenHv8ZCCd9WdT1n5e0fmGtfRv52fN4CexMTQ09yvJk7p5pRsCJkARGcAvcjKdYwWqBtfdj0RFP_S61YarKO9-wFlX4-kqNODx0PNZbQ9SrhKchxZ3EPHhWZgtWK3ddAeog4DZb0HfrOFD1VgYF5gzhw0d8UeSlcAcXH2AGylRPoJskEMe1dgevH3hjTG7bwKpCn_q36M7DyhHgE21wxPF0pPaCw4cCyXGRL5uF2EF6y1LlVEiME0zl3RWoLErC1yBkeLgeQZNXEkOKlfZlSjDdejNKxPDK_7fecxg8PED1l67hNh3ExhE3Iu5EAsTTo0d94SOrG3-6zvXRNH3cvFyXjUqmn1S_-K2QsgpU7CQKsSEk-48PqfvBJqXXp7EalkM7T72dLQpKFBaebxtE0PF8fRIFt63lBg2ZvrgT-Ruy_b_GS0?></g></svg>