<svg xmlns="http://www.w3.org/2000/svg" xmlns:xlink="http://www.w3.org/1999/xlink" contentStyleType="text/css" data-diagram-type="SEQUENCE" height="785px" preserveAspectRatio="none" style="width:1362px;height:785px;background:#FFFFFF;" version="1.1" viewBox="0 0 1362 785" width="1362px" zoomAndPan="magnify"><?plantuml 1.2026.6?><defs/><g><g class="title" data-source-line="1"><text fill="#000000" font-family="sans-serif" font-size="14" font-weight="700" lengthAdjust="spacing" textLength="489.8223" x="432.8416" y="27.9951">14 - Fluxo Alternativo - Falha de Autoriza&#231;&#227;o e Compensa&#231;&#245;es</text></g><g><title>Order Service</title><rect fill="#FFFFFF" height="58.2656" style="stroke:#181818;stroke-width:1;" width="10" x="362.248" y="164.8594"/></g><g><title>Order Service</title><rect fill="#FFFFFF" height="116.5313" style="stroke:#181818;stroke-width:1;" width="10" x="362.248" y="310.5234"/></g><g><title>Payment Platform</title><rect fill="#FFFFFF" height="29.1328" style="stroke:#181818;stroke-width:1;" width="10" x="887.8154" y="252.2578"/></g><g class="participant-lifeline" data-entity-uid="part1" data-qualified-name="Kafka" data-source-line="4" id="part1-lifeline"><g><title>Kafka</title><rect fill="#000000" fill-opacity="0.00000" height="612.5234" width="8" x="30.6875" y="104.5938"/><line style="stroke:#181818;stroke-width:0.5;stroke-dasharray:5,5;" x1="34" x2="34" y1="104.5938" y2="717.1172"/></g></g><g class="participant-lifeline" data-entity-uid="part2" data-qualified-name="Order" data-source-line="5" id="part2-lifeline"><g><title>Order Service</title><rect fill="#000000" fill-opacity="0.00000" height="612.5234" width="8" x="363.248" y="104.5938"/><line style="stroke:#181818;stroke-width:0.5;stroke-dasharray:5,5;" x1="367.1367" x2="367.1367" y1="104.5938" y2="717.1172"/></g></g><g class="participant-lifeline" data-entity-uid="part3" data-qualified-name="Inventory" data-source-line="6" id="part3-lifeline"><g><title>Inventory Service</title><rect fill="#000000" fill-opacity="0.00000" height="612.5234" width="8" x="496.8896" y="104.5938"/><line style="stroke:#181818;stroke-width:0.5;stroke-dasharray:5,5;" x1="500.3594" x2="500.3594" y1="104.5938" y2="717.1172"/></g></g><g class="participant-lifeline" data-entity-uid="part4" data-qualified-name="FC" data-source-line="7" id="part4-lifeline"><g><title>Fulfillment Center Service</title><rect fill="#000000" fill-opacity="0.00000" height="612.5234" width="8" x="692.8525" y="104.5938"/><line style="stroke:#181818;stroke-width:0.5;stroke-dasharray:5,5;" x1="695.9585" x2="695.9585" y1="104.5938" y2="717.1172"/></g></g><g class="participant-lifeline" data-entity-uid="part5" data-qualified-name="Payment" data-source-line="8" id="part5-lifeline"><g><title>Payment Platform</title><rect fill="#000000" fill-opacity="0.00000" height="612.5234" width="8" x="888.8154" y="104.5938"/><line style="stroke:#181818;stroke-width:0.5;stroke-dasharray:5,5;" x1="891.9863" x2="891.9863" y1="104.5938" y2="717.1172"/></g></g><g class="participant-lifeline" data-entity-uid="part6" data-qualified-name="Notification" data-source-line="9" id="part6-lifeline"><g><title>Notification Service</title><rect fill="#000000" fill-opacity="0.00000" height="612.5234" width="8" x="1043.9048" y="104.5938"/><line style="stroke:#181818;stroke-width:0.5;stroke-dasharray:5,5;" x1="1047.6445" x2="1047.6445" y1="104.5938" y2="717.1172"/></g></g><g class="participant-lifeline" data-entity-uid="part7" data-qualified-name="OrderDb" data-source-line="11" id="part7-lifeline"><g><title>Order DB</title><rect fill="#000000" fill-opacity="0.00000" height="612.5234" width="8" x="1312.0723" y="104.5938"/><line style="stroke:#181818;stroke-width:0.5;stroke-dasharray:5,5;" x1="1315.6392" x2="1315.6392" y1="104.5938" y2="717.1172"/></g></g><g class="participant participant-head" data-entity-uid="part1" data-qualified-name="Kafka" data-source-line="4" id="part1-head"><path d="M10,78.2969 L59.375,78.2969 C64.375,78.2969 64.375,91.4453 64.375,91.4453 C64.375,91.4453 64.375,104.5938 59.375,104.5938 L10,104.5938 C5,104.5938 5,91.4453 5,91.4453 C5,91.4453 5,78.2969 10,78.2969" fill="#E2E2F0" style="stroke:#181818;stroke-width:0.5;"/><path d="M59.375,78.2969 C54.375,78.2969 54.375,91.4453 54.375,91.4453 C54.375,104.5938 59.375,104.5938 59.375,104.5938" fill="none" style="stroke:#181818;stroke-width:0.5;"/><text fill="#000000" font-family="sans-serif" font-size="14" lengthAdjust="spacing" textLength="39.375" x="10" y="96.292">Kafka</text></g><g class="participant participant-tail" data-entity-uid="part1" data-qualified-name="Kafka" data-source-line="4" id="part1-tail"><path d="M10,716.1172 L59.375,716.1172 C64.375,716.1172 64.375,729.2656 64.375,729.2656 C64.375,729.2656 64.375,742.4141 59.375,742.4141 L10,742.4141 C5,742.4141 5,729.2656 5,729.2656 C5,729.2656 5,716.1172 10,716.1172" fill="#E2E2F0" style="stroke:#181818;stroke-width:0.5;"/><path d="M59.375,716.1172 C54.375,716.1172 54.375,729.2656 54.375,729.2656 C54.375,742.4141 59.375,742.4141 59.375,742.4141" fill="none" style="stroke:#181818;stroke-width:0.5;"/><text fill="#000000" font-family="sans-serif" font-size="14" lengthAdjust="spacing" textLength="39.375" x="10" y="734.1123">Kafka</text></g><g class="participant participant-head" data-entity-uid="part2" data-qualified-name="Order" data-source-line="5" id="part2-head"><rect fill="#E2E2F0" height="30.2969" rx="2.5" ry="2.5" style="stroke:#181818;stroke-width:0.5;" width="110.2227" x="312.1367" y="73.2969"/><text fill="#000000" font-family="sans-serif" font-size="14" lengthAdjust="spacing" textLength="96.2227" x="319.1367" y="93.292">Order Service</text></g><g class="participant participant-tail" data-entity-uid="part2" data-qualified-name="Order" data-source-line="5" id="part2-tail"><rect fill="#E2E2F0" height="30.2969" rx="2.5" ry="2.5" style="stroke:#181818;stroke-width:0.5;" width="110.2227" x="312.1367" y="716.1172"/><text fill="#000000" font-family="sans-serif" font-size="14" lengthAdjust="spacing" textLength="96.2227" x="319.1367" y="736.1123">Order Service</text></g><g class="participant participant-head" data-entity-uid="part3" data-qualified-name="Inventory" data-source-line="6" id="part3-head"><rect fill="#E2E2F0" height="30.2969" rx="2.5" ry="2.5" style="stroke:#181818;stroke-width:0.5;" width="137.0605" x="432.3594" y="73.2969"/><text fill="#000000" font-family="sans-serif" font-size="14" lengthAdjust="spacing" textLength="123.0605" x="439.3594" y="93.292">Inventory Service</text></g><g class="participant participant-tail" data-entity-uid="part3" data-qualified-name="Inventory" data-source-line="6" id="part3-tail"><rect fill="#E2E2F0" height="30.2969" rx="2.5" ry="2.5" style="stroke:#181818;stroke-width:0.5;" width="137.0605" x="432.3594" y="716.1172"/><text fill="#000000" font-family="sans-serif" font-size="14" lengthAdjust="spacing" textLength="123.0605" x="439.3594" y="736.1123">Inventory Service</text></g><g class="participant participant-head" data-entity-uid="part4" data-qualified-name="FC" data-source-line="7" id="part4-head"><rect fill="#E2E2F0" height="30.2969" rx="2.5" ry="2.5" style="stroke:#181818;stroke-width:0.5;" width="195.7881" x="598.9585" y="73.2969"/><text fill="#000000" font-family="sans-serif" font-size="14" lengthAdjust="spacing" textLength="181.7881" x="605.9585" y="93.292">Fulfillment Center Service</text></g><g class="participant participant-tail" data-entity-uid="part4" data-qualified-name="FC" data-source-line="7" id="part4-tail"><rect fill="#E2E2F0" height="30.2969" rx="2.5" ry="2.5" style="stroke:#181818;stroke-width:0.5;" width="195.7881" x="598.9585" y="716.1172"/><text fill="#000000" font-family="sans-serif" font-size="14" lengthAdjust="spacing" textLength="181.7881" x="605.9585" y="736.1123">Fulfillment Center Service</text></g><g class="participant participant-head" data-entity-uid="part5" data-qualified-name="Payment" data-source-line="8" id="part5-head"><rect fill="#E2E2F0" height="30.2969" rx="2.5" ry="2.5" style="stroke:#181818;stroke-width:0.5;" width="139.6582" x="822.9863" y="73.2969"/><text fill="#000000" font-family="sans-serif" font-size="14" lengthAdjust="spacing" textLength="125.6582" x="829.9863" y="93.292">Payment Platform</text></g><g class="participant participant-tail" data-entity-uid="part5" data-qualified-name="Payment" data-source-line="8" id="part5-tail"><rect fill="#E2E2F0" height="30.2969" rx="2.5" ry="2.5" style="stroke:#181818;stroke-width:0.5;" width="139.6582" x="822.9863" y="716.1172"/><text fill="#000000" font-family="sans-serif" font-size="14" lengthAdjust="spacing" textLength="125.6582" x="829.9863" y="736.1123">Payment Platform</text></g><g class="participant participant-head" data-entity-uid="part6" data-qualified-name="Notification" data-source-line="9" id="part6-head"><rect fill="#E2E2F0" height="30.2969" rx="2.5" ry="2.5" style="stroke:#181818;stroke-width:0.5;" width="150.5205" x="972.6445" y="73.2969"/><text fill="#000000" font-family="sans-serif" font-size="14" lengthAdjust="spacing" textLength="136.5205" x="979.6445" y="93.292">Notification Service</text></g><g class="participant participant-tail" data-entity-uid="part6" data-qualified-name="Notification" data-source-line="9" id="part6-tail"><rect fill="#E2E2F0" height="30.2969" rx="2.5" ry="2.5" style="stroke:#181818;stroke-width:0.5;" width="150.5205" x="972.6445" y="716.1172"/><text fill="#000000" font-family="sans-serif" font-size="14" lengthAdjust="spacing" textLength="136.5205" x="979.6445" y="736.1123">Notification Service</text></g><g class="participant participant-head" data-entity-uid="part7" data-qualified-name="OrderDb" data-source-line="11" id="part7-head"><text fill="#000000" font-family="sans-serif" font-size="14" lengthAdjust="spacing" textLength="64.8662" x="1280.6392" y="101.292">Order DB</text><path d="M1298.0723,52.2969 C1298.0723,42.2969 1316.0723,42.2969 1316.0723,42.2969 C1316.0723,42.2969 1334.0723,42.2969 1334.0723,52.2969 L1334.0723,78.2969 C1334.0723,88.2969 1316.0723,88.2969 1316.0723,88.2969 C1316.0723,88.2969 1298.0723,88.2969 1298.0723,78.2969 L1298.0723,52.2969" fill="#E2E2F0" style="stroke:#181818;stroke-width:0.5;"/><path d="M1298.0723,52.2969 C1298.0723,62.2969 1316.0723,62.2969 1316.0723,62.2969 C1316.0723,62.2969 1334.0723,62.2969 1334.0723,52.2969" fill="none" style="stroke:#181818;stroke-width:0.5;"/></g><g class="participant participant-tail" data-entity-uid="part7" data-qualified-name="OrderDb" data-source-line="11" id="part7-tail"><text fill="#000000" font-family="sans-serif" font-size="14" lengthAdjust="spacing" textLength="64.8662" x="1280.6392" y="729.1123">Order DB</text><path d="M1298.0723,742.4141 C1298.0723,732.4141 1316.0723,732.4141 1316.0723,732.4141 C1316.0723,732.4141 1334.0723,732.4141 1334.0723,742.4141 L1334.0723,768.4141 C1334.0723,778.4141 1316.0723,778.4141 1316.0723,778.4141 C1316.0723,778.4141 1298.0723,778.4141 1298.0723,768.4141 L1298.0723,742.4141" fill="#E2E2F0" style="stroke:#181818;stroke-width:0.5;"/><path d="M1298.0723,742.4141 C1298.0723,752.4141 1316.0723,752.4141 1316.0723,752.4141 C1316.0723,752.4141 1334.0723,752.4141 1334.0723,742.4141" fill="none" style="stroke:#181818;stroke-width:0.5;"/></g><g><title>Order Service</title><rect fill="#FFFFFF" height="58.2656" style="stroke:#181818;stroke-width:1;" width="10" x="362.248" y="164.8594"/></g><g><title>Order Service</title><rect fill="#FFFFFF" height="116.5313" style="stroke:#181818;stroke-width:1;" width="10" x="362.248" y="310.5234"/></g><g><title>Payment Platform</title><rect fill="#FFFFFF" height="29.1328" style="stroke:#181818;stroke-width:1;" width="10" x="887.8154" y="252.2578"/></g><g class="message" data-entity-1="part1" data-entity-2="part2" data-source-line="13" id="msg1"><polygon fill="#181818" points="355.248,131.7266,365.248,135.7266,355.248,139.7266,359.248,135.7266" style="stroke:#181818;stroke-width:1;stroke-linejoin:miter;stroke-miterlimit:10;"/><line style="stroke:#181818;stroke-width:1;" x1="34.6875" x2="361.248" y1="135.7266" y2="135.7266"/><text fill="#000000" font-family="sans-serif" font-size="13" font-weight="700" lengthAdjust="spacing" textLength="9.0454" x="41.6875" y="130.6606">1</text><text fill="#000000" font-family="sans-serif" font-size="13" lengthAdjust="spacing" textLength="232.0576" x="54.7329" y="130.6606">InventoryReservedIntegrationEvent</text></g><g class="message" data-entity-1="part1" data-entity-2="part2" data-source-line="14" id="msg2"><polygon fill="#181818" points="350.248,160.8594,360.248,164.8594,350.248,168.8594,354.248,164.8594" style="stroke:#181818;stroke-width:1;stroke-linejoin:miter;stroke-miterlimit:10;"/><line style="stroke:#181818;stroke-width:1;" x1="34.6875" x2="356.248" y1="164.8594" y2="164.8594"/><text fill="#000000" font-family="sans-serif" font-size="13" font-weight="700" lengthAdjust="spacing" textLength="9.0454" x="41.6875" y="159.7935">2</text><text fill="#000000" font-family="sans-serif" font-size="13" lengthAdjust="spacing" textLength="295.5151" x="54.7329" y="159.7935">FulfillmentCapacityReservedIntegrationEvent</text></g><g class="message" data-entity-1="part2" data-entity-2="part7" data-source-line="16" id="msg3"><polygon fill="#181818" points="1304.0723,189.9922,1314.0723,193.9922,1304.0723,197.9922,1308.0723,193.9922" style="stroke:#181818;stroke-width:1;stroke-linejoin:miter;stroke-miterlimit:10;"/><line style="stroke:#181818;stroke-width:1;" x1="372.248" x2="1310.0723" y1="193.9922" y2="193.9922"/><text fill="#000000" font-family="sans-serif" font-size="13" font-weight="700" lengthAdjust="spacing" textLength="9.0454" x="379.248" y="188.9263">3</text><text fill="#000000" font-family="sans-serif" font-size="13" lengthAdjust="spacing" textLength="299.2983" x="392.2935" y="188.9263">Pedido com estoque e capacidade reservados</text></g><g class="message" data-entity-1="part2" data-entity-2="part1" data-source-line="17" id="msg4"><polygon fill="#181818" points="45.6875,219.125,35.6875,223.125,45.6875,227.125,41.6875,223.125" style="stroke:#181818;stroke-width:1;stroke-linejoin:miter;stroke-miterlimit:10;"/><line style="stroke:#181818;stroke-width:1;" x1="39.6875" x2="366.248" y1="223.125" y2="223.125"/><text fill="#000000" font-family="sans-serif" font-size="13" font-weight="700" lengthAdjust="spacing" textLength="9.0454" x="51.6875" y="218.0591">4</text><text fill="#000000" font-family="sans-serif" font-size="13" lengthAdjust="spacing" textLength="186.5132" x="64.7329" y="218.0591">AuthorizePaymentCommand</text></g><g class="message" data-entity-1="part1" data-entity-2="part5" data-source-line="20" id="msg5"><polygon fill="#181818" points="875.8154,248.2578,885.8154,252.2578,875.8154,256.2578,879.8154,252.2578" style="stroke:#181818;stroke-width:1;stroke-linejoin:miter;stroke-miterlimit:10;"/><line style="stroke:#181818;stroke-width:1;" x1="34.6875" x2="881.8154" y1="252.2578" y2="252.2578"/><text fill="#000000" font-family="sans-serif" font-size="13" font-weight="700" lengthAdjust="spacing" textLength="9.0454" x="41.6875" y="247.1919">5</text><text fill="#000000" font-family="sans-serif" font-size="13" lengthAdjust="spacing" textLength="186.5132" x="54.7329" y="247.1919">AuthorizePaymentCommand</text></g><g class="message" data-entity-1="part5" data-entity-2="part1" data-source-line="22" id="msg6"><polygon fill="#181818" points="45.6875,277.3906,35.6875,281.3906,45.6875,285.3906,41.6875,281.3906" style="stroke:#181818;stroke-width:1;stroke-linejoin:miter;stroke-miterlimit:10;"/><line style="stroke:#181818;stroke-width:1;stroke-dasharray:2,2;" x1="39.6875" x2="891.8154" y1="281.3906" y2="281.3906"/><text fill="#000000" font-family="sans-serif" font-size="13" font-weight="700" lengthAdjust="spacing" textLength="9.0454" x="51.6875" y="276.3247">6</text><text fill="#000000" font-family="sans-serif" font-size="13" lengthAdjust="spacing" textLength="292.3604" x="64.7329" y="276.3247">PaymentAuthorizationFailedIntegrationEvent</text></g><g class="message" data-entity-1="part1" data-entity-2="part2" data-source-line="25" id="msg7"><polygon fill="#181818" points="350.248,306.5234,360.248,310.5234,350.248,314.5234,354.248,310.5234" style="stroke:#181818;stroke-width:1;stroke-linejoin:miter;stroke-miterlimit:10;"/><line style="stroke:#181818;stroke-width:1;" x1="34.6875" x2="356.248" y1="310.5234" y2="310.5234"/><text fill="#000000" font-family="sans-serif" font-size="13" font-weight="700" lengthAdjust="spacing" textLength="9.0454" x="41.6875" y="305.4575">7</text><text fill="#000000" font-family="sans-serif" font-size="13" lengthAdjust="spacing" textLength="292.3604" x="54.7329" y="305.4575">PaymentAuthorizationFailedIntegrationEvent</text></g><g class="message" data-entity-1="part2" data-entity-2="part7" data-source-line="27" id="msg8"><polygon fill="#181818" points="1304.0723,335.6563,1314.0723,339.6563,1304.0723,343.6563,1308.0723,339.6563" style="stroke:#181818;stroke-width:1;stroke-linejoin:miter;stroke-miterlimit:10;"/><line style="stroke:#181818;stroke-width:1;" x1="372.248" x2="1310.0723" y1="339.6563" y2="339.6563"/><text fill="#000000" font-family="sans-serif" font-size="13" font-weight="700" lengthAdjust="spacing" textLength="9.0454" x="379.248" y="334.5903">8</text><text fill="#000000" font-family="sans-serif" font-size="13" lengthAdjust="spacing" textLength="195.9775" x="392.2935" y="334.5903">Marca pedido como Cancelled</text></g><g class="message" data-entity-1="part2" data-entity-2="part1" data-source-line="28" id="msg9"><polygon fill="#181818" points="45.6875,364.7891,35.6875,368.7891,45.6875,372.7891,41.6875,368.7891" style="stroke:#181818;stroke-width:1;stroke-linejoin:miter;stroke-miterlimit:10;"/><line style="stroke:#181818;stroke-width:1;" x1="39.6875" x2="361.248" y1="368.7891" y2="368.7891"/><text fill="#000000" font-family="sans-serif" font-size="13" font-weight="700" lengthAdjust="spacing" textLength="9.0454" x="51.6875" y="363.7231">9</text><text fill="#000000" font-family="sans-serif" font-size="13" lengthAdjust="spacing" textLength="257.9941" x="64.7329" y="363.7231">ReleaseInventoryReservationCommand</text></g><g class="message" data-entity-1="part2" data-entity-2="part1" data-source-line="29" id="msg10"><polygon fill="#181818" points="45.6875,393.9219,35.6875,397.9219,45.6875,401.9219,41.6875,397.9219" style="stroke:#181818;stroke-width:1;stroke-linejoin:miter;stroke-miterlimit:10;"/><line style="stroke:#181818;stroke-width:1;" x1="39.6875" x2="361.248" y1="397.9219" y2="397.9219"/><text fill="#000000" font-family="sans-serif" font-size="13" font-weight="700" lengthAdjust="spacing" textLength="18.0908" x="51.6875" y="392.856">10</text><text fill="#000000" font-family="sans-serif" font-size="13" lengthAdjust="spacing" textLength="243.7437" x="73.7783" y="392.856">ReleaseFulfillmentCapacityCommand</text></g><g class="message" data-entity-1="part2" data-entity-2="part1" data-source-line="30" id="msg11"><polygon fill="#181818" points="45.6875,423.0547,35.6875,427.0547,45.6875,431.0547,41.6875,427.0547" style="stroke:#181818;stroke-width:1;stroke-linejoin:miter;stroke-miterlimit:10;"/><line style="stroke:#181818;stroke-width:1;" x1="39.6875" x2="366.248" y1="427.0547" y2="427.0547"/><text fill="#000000" font-family="sans-serif" font-size="13" font-weight="700" lengthAdjust="spacing" textLength="18.0908" x="51.6875" y="421.9888">11</text><text fill="#000000" font-family="sans-serif" font-size="13" lengthAdjust="spacing" textLength="209.9487" x="73.7783" y="421.9888">OrderCancelledIntegrationEvent</text></g><g class="message" data-entity-1="part1" data-entity-2="part3" data-source-line="33" id="msg12"><polygon fill="#181818" points="488.8896,452.1875,498.8896,456.1875,488.8896,460.1875,492.8896,456.1875" style="stroke:#181818;stroke-width:1;stroke-linejoin:miter;stroke-miterlimit:10;"/><line style="stroke:#181818;stroke-width:1;" x1="34.6875" x2="494.8896" y1="456.1875" y2="456.1875"/><text fill="#000000" font-family="sans-serif" font-size="13" font-weight="700" lengthAdjust="spacing" textLength="18.0908" x="41.6875" y="451.1216">12</text><text fill="#000000" font-family="sans-serif" font-size="13" lengthAdjust="spacing" textLength="257.9941" x="63.7783" y="451.1216">ReleaseInventoryReservationCommand</text></g><g class="message" data-entity-1="part3" data-entity-2="part3" data-source-line="34" id="msg13"><line style="stroke:#181818;stroke-width:1;" x1="500.8896" x2="542.8896" y1="485.3203" y2="485.3203"/><line style="stroke:#181818;stroke-width:1;" x1="542.8896" x2="542.8896" y1="485.3203" y2="498.3203"/><line style="stroke:#181818;stroke-width:1;" x1="501.8896" x2="542.8896" y1="498.3203" y2="498.3203"/><polygon fill="#181818" points="511.8896,494.3203,501.8896,498.3203,511.8896,502.3203,507.8896,498.3203" style="stroke:#181818;stroke-width:1;stroke-linejoin:miter;stroke-miterlimit:10;"/><text fill="#000000" font-family="sans-serif" font-size="13" font-weight="700" lengthAdjust="spacing" textLength="18.0908" x="507.8896" y="480.2544">13</text><text fill="#000000" font-family="sans-serif" font-size="13" lengthAdjust="spacing" textLength="159.8721" x="529.9805" y="480.2544">Libera reserva pendente</text></g><g class="message" data-entity-1="part3" data-entity-2="part1" data-source-line="35" id="msg14"><polygon fill="#181818" points="45.6875,523.4531,35.6875,527.4531,45.6875,531.4531,41.6875,527.4531" style="stroke:#181818;stroke-width:1;stroke-linejoin:miter;stroke-miterlimit:10;"/><line style="stroke:#181818;stroke-width:1;" x1="39.6875" x2="499.8896" y1="527.4531" y2="527.4531"/><text fill="#000000" font-family="sans-serif" font-size="13" font-weight="700" lengthAdjust="spacing" textLength="18.0908" x="51.6875" y="522.3872">14</text><text fill="#000000" font-family="sans-serif" font-size="13" lengthAdjust="spacing" textLength="308.3057" x="73.7783" y="522.3872">InventoryReservationReleasedIntegrationEvent</text></g><g class="message" data-entity-1="part1" data-entity-2="part4" data-source-line="37" id="msg15"><polygon fill="#181818" points="684.8525,552.5859,694.8525,556.5859,684.8525,560.5859,688.8525,556.5859" style="stroke:#181818;stroke-width:1;stroke-linejoin:miter;stroke-miterlimit:10;"/><line style="stroke:#181818;stroke-width:1;" x1="34.6875" x2="690.8525" y1="556.5859" y2="556.5859"/><text fill="#000000" font-family="sans-serif" font-size="13" font-weight="700" lengthAdjust="spacing" textLength="18.0908" x="41.6875" y="551.52">15</text><text fill="#000000" font-family="sans-serif" font-size="13" lengthAdjust="spacing" textLength="243.7437" x="63.7783" y="551.52">ReleaseFulfillmentCapacityCommand</text></g><g class="message" data-entity-1="part4" data-entity-2="part4" data-source-line="38" id="msg16"><line style="stroke:#181818;stroke-width:1;" x1="696.8525" x2="738.8525" y1="585.7188" y2="585.7188"/><line style="stroke:#181818;stroke-width:1;" x1="738.8525" x2="738.8525" y1="585.7188" y2="598.7188"/><line style="stroke:#181818;stroke-width:1;" x1="697.8525" x2="738.8525" y1="598.7188" y2="598.7188"/><polygon fill="#181818" points="707.8525,594.7188,697.8525,598.7188,707.8525,602.7188,703.8525,598.7188" style="stroke:#181818;stroke-width:1;stroke-linejoin:miter;stroke-miterlimit:10;"/><text fill="#000000" font-family="sans-serif" font-size="13" font-weight="700" lengthAdjust="spacing" textLength="18.0908" x="703.8525" y="580.6528">16</text><text fill="#000000" font-family="sans-serif" font-size="13" lengthAdjust="spacing" textLength="159.8721" x="725.9434" y="580.6528">Libera reserva pendente</text></g><g class="message" data-entity-1="part4" data-entity-2="part1" data-source-line="39" id="msg17"><polygon fill="#181818" points="45.6875,623.8516,35.6875,627.8516,45.6875,631.8516,41.6875,627.8516" style="stroke:#181818;stroke-width:1;stroke-linejoin:miter;stroke-miterlimit:10;"/><line style="stroke:#181818;stroke-width:1;" x1="39.6875" x2="695.8525" y1="627.8516" y2="627.8516"/><text fill="#000000" font-family="sans-serif" font-size="13" font-weight="700" lengthAdjust="spacing" textLength="18.0908" x="51.6875" y="622.7856">17</text><text fill="#000000" font-family="sans-serif" font-size="13" lengthAdjust="spacing" textLength="294.0552" x="73.7783" y="622.7856">FulfillmentCapacityReleasedIntegrationEvent</text></g><g class="message" data-entity-1="part1" data-entity-2="part6" data-source-line="41" id="msg18"><polygon fill="#181818" points="1035.9048,652.9844,1045.9048,656.9844,1035.9048,660.9844,1039.9048,656.9844" style="stroke:#181818;stroke-width:1;stroke-linejoin:miter;stroke-miterlimit:10;"/><line style="stroke:#181818;stroke-width:1;" x1="34.6875" x2="1041.9048" y1="656.9844" y2="656.9844"/><text fill="#000000" font-family="sans-serif" font-size="13" font-weight="700" lengthAdjust="spacing" textLength="18.0908" x="41.6875" y="651.9185">18</text><text fill="#000000" font-family="sans-serif" font-size="13" lengthAdjust="spacing" textLength="209.9487" x="63.7783" y="651.9185">OrderCancelledIntegrationEvent</text></g><g class="message" data-entity-1="part6" data-entity-2="part6" data-source-line="42" id="msg19"><line style="stroke:#181818;stroke-width:1;" x1="1047.9048" x2="1089.9048" y1="686.1172" y2="686.1172"/><line style="stroke:#181818;stroke-width:1;" x1="1089.9048" x2="1089.9048" y1="686.1172" y2="699.1172"/><line style="stroke:#181818;stroke-width:1;" x1="1048.9048" x2="1089.9048" y1="699.1172" y2="699.1172"/><polygon fill="#181818" points="1058.9048,695.1172,1048.9048,699.1172,1058.9048,703.1172,1054.9048,699.1172" style="stroke:#181818;stroke-width:1;stroke-linejoin:miter;stroke-miterlimit:10;"/><text fill="#000000" font-family="sans-serif" font-size="13" font-weight="700" lengthAdjust="spacing" textLength="18.0908" x="1054.9048" y="681.0513">19</text><text fill="#000000" font-family="sans-serif" font-size="13" lengthAdjust="spacing" textLength="232.0767" x="1076.9956" y="681.0513">Cria notifica&#231;&#227;o de falha na compra</text></g><?plantuml-src bLH1Rjim4Bpp5GlVVGYGamy1Kha2WZQfaRnWJQuIeXIfK9IHv3ivz0LzGJvMYYObqxBYz69OozdXxEnodNIAuE8Ibb2gxiN0jN9aDJgvCtqCrHE28BZkdB7o3J_-VBmR82XCtP1k---_r3A6_bntzPOiU-we8rZymEetBW1R2FzOWzP9BXlK3XQ_h20B3sHtabC0XKWEkj4xqlxQrmmuH7DmsQbAAbNxCoZypn5zMUJm3Ru6w4QXguoj0oW6S-ITSRAIt3jYT4PvUC2OG8TRR2dLjlusbhNUCXPCWENLFh8QoxYdrfEIkF6Q7srW-zuVJJ8EAYomGIxTV2votq1q56tTIqfKw-qADYIaCC1D3TGwutlccye3hK3VRnkOKPXsJ0w2LlqeFFMpGD4kFmerQi447TqwLX2Hyxb3Pcf1wizol3U64aMejaIfJfH_82KHJkpy3xgpRjwYvGZDuAc10ZKdvSaczjsJ8ZydH_qFjoKtPb9E3C1SHlWUD7pcpt6h1brVKZe-qJprf_IR0DCKUMUqwDzaZezQJ_77gwVAHw5byHLZoY9XvoJj4L7BoJTsLihX9ZZhVRPF9ic5bGWwXlRBrh_6AgnXZVriDHRPFm00?></g></svg>