<svg xmlns="http://www.w3.org/2000/svg" xmlns:xlink="http://www.w3.org/1999/xlink" version="1.1" data-diagram-type="SEQUENCE" style="width:2129px;height:765px;background:#FFFFFF;" width="2129px" height="765px" viewBox="0 0 2129 765" zoomAndPan="magnify" preserveAspectRatio="none" contentStyleType="text/css"><?plantuml 1.2026.8?><defs/><g font-family="sans-serif" lengthAdjust="spacing"><g class="title" data-source-line="1"><text x="838.563" y="27.995" fill="#000" font-size="14" textLength="449.9" font-weight="700">16 - Fluxo Alternativo - Exceção na Entrega e Notificação</text></g><rect x="1358.513" y="381.656" width="309.454" height="130.203" fill="none" style="stroke:#000;stroke-width:1.5;"/><g><title>Carrier.Provider</title><rect x="69.018" y="123.594" width="8" height="554.797" fill="#000" fill-opacity="0"/><line x1="72.518" y1="123.594" x2="72.518" y2="678.391" style="stroke:#181818;stroke-width:0.5;stroke-dasharray:5,5;"/></g><g><title>Kafka</title><rect x="472.076" y="123.594" width="8" height="554.797" fill="#000" fill-opacity="0"/><line x1="475.576" y1="123.594" x2="475.576" y2="678.391" style="stroke:#181818;stroke-width:0.5;stroke-dasharray:5,5;"/></g><g><title>Tracking Service</title><rect x="946.542" y="123.594" width="8" height="554.797" fill="#000" fill-opacity="0"/><line x1="950.042" y1="123.594" x2="950.042" y2="678.391" style="stroke:#181818;stroke-width:0.5;stroke-dasharray:5,5;"/></g><g><title></title><rect x="945.042" y="181.859" width="10" height="116.531" fill="#FFF" style="stroke:#181818;stroke-width:1;"/></g><g><title>Tracking DB</title><rect x="1260.314" y="123.594" width="8" height="554.797" fill="#000" fill-opacity="0"/><line x1="1263.814" y1="123.594" x2="1263.814" y2="678.391" style="stroke:#181818;stroke-width:0.5;stroke-dasharray:5,5;"/></g><g><title>Order Service</title><rect x="1371.013" y="123.594" width="8" height="554.797" fill="#000" fill-opacity="0"/><line x1="1374.513" y1="123.594" x2="1374.513" y2="678.391" style="stroke:#181818;stroke-width:0.5;stroke-dasharray:5,5;"/></g><g><title></title><rect x="1369.513" y="327.523" width="10" height="198.336" fill="#FFF" style="stroke:#181818;stroke-width:1;"/></g><g><title>Notification Service</title><rect x="1748.727" y="123.594" width="8" height="554.797" fill="#000" fill-opacity="0"/><line x1="1752.227" y1="123.594" x2="1752.227" y2="678.391" style="stroke:#181818;stroke-width:0.5;stroke-dasharray:5,5;"/></g><g><title></title><rect x="1747.227" y="546.992" width="10" height="113.398" fill="#FFF" style="stroke:#181818;stroke-width:1;"/></g><g><title>Buyer</title><rect x="2090.961" y="123.594" width="8" height="554.797" fill="#000" fill-opacity="0"/><line x1="2094.461" y1="123.594" x2="2094.461" y2="678.391" style="stroke:#181818;stroke-width:0.5;stroke-dasharray:5,5;"/></g><rect x="10" y="92.297" width="125.036" height="30.297" fill="#E2E2F0" style="stroke:#181818;stroke-width:0.5;" rx="2.5" ry="2.5"/><text x="17" y="112.292" fill="#000" font-size="14" textLength="111.036">Carrier/Provider</text><path d="M450.888,97.297 L500.263,97.297 C505.263,97.297 505.263,110.445 505.263,110.445 C505.263,110.445 505.263,123.594 500.263,123.594 L450.888,123.594 C445.888,123.594 445.888,110.445 445.888,110.445 C445.888,110.445 445.888,97.297 450.888,97.297" style="stroke:#181818;stroke-width:0.5;" fill="#E2E2F0"/><path d="M500.263,97.297 C495.263,97.297 495.263,110.445 495.263,110.445 C495.263,123.594 500.263,123.594 500.263,123.594" style="stroke:#181818;stroke-width:0.5;" fill="none"/><text x="450.888" y="115.292" fill="#000" font-size="14" textLength="39.375">Kafka</text><rect x="884.776" y="92.297" width="130.532" height="30.297" fill="#E2E2F0" style="stroke:#181818;stroke-width:0.5;" rx="2.5" ry="2.5"/><text x="891.776" y="112.292" fill="#000" font-size="14" textLength="116.532">Tracking Service</text><text x="1218.226" y="120.292" fill="#000" font-size="14" textLength="85.176">Tracking DB</text><path d="M1245.814,71.297 C1245.814,61.297 1263.814,61.297 1263.814,61.297 C1263.814,61.297 1281.814,61.297 1281.814,71.297 L1281.814,97.297 C1281.814,107.297 1263.814,107.297 1263.814,107.297 C1263.814,107.297 1245.814,107.297 1245.814,97.297 L1245.814,71.297" style="stroke:#181818;stroke-width:0.5;" fill="#E2E2F0"/><path d="M1245.814,71.297 C1245.814,81.297 1263.814,81.297 1263.814,81.297 C1263.814,81.297 1281.814,81.297 1281.814,71.297" style="stroke:#181818;stroke-width:0.5;" fill="none"/><rect x="1319.402" y="92.297" width="110.223" height="30.297" fill="#E2E2F0" style="stroke:#181818;stroke-width:0.5;" rx="2.5" ry="2.5"/><text x="1326.402" y="112.292" fill="#000" font-size="14" textLength="96.223">Order Service</text><rect x="1676.967" y="92.297" width="150.521" height="30.297" fill="#E2E2F0" style="stroke:#181818;stroke-width:0.5;" rx="2.5" ry="2.5"/><text x="1683.967" y="112.292" fill="#000" font-size="14" textLength="136.521">Notification Service</text><text x="2070.896" y="120.292" fill="#000" font-size="14" textLength="41.132">Buyer</text><ellipse cx="2094.461" cy="55.797" rx="8" ry="8" fill="#E2E2F0" style="stroke:#181818;stroke-width:0.5;"/><path d="M2094.461,63.797 L2094.461,90.797 M2081.461,71.797 L2107.461,71.797 M2094.461,90.797 L2081.461,105.797 M2094.461,90.797 L2107.461,105.797" style="stroke:#181818;stroke-width:0.5;" fill="none"/><rect x="10" y="678.391" width="125.036" height="30.297" fill="#E2E2F0" style="stroke:#181818;stroke-width:0.5;" rx="2.5" ry="2.5"/><text x="17" y="698.386" fill="#000" font-size="14" textLength="111.036">Carrier/Provider</text><path d="M450.888,678.391 L500.263,678.391 C505.263,678.391 505.263,691.539 505.263,691.539 C505.263,691.539 505.263,704.688 500.263,704.688 L450.888,704.688 C445.888,704.688 445.888,691.539 445.888,691.539 C445.888,691.539 445.888,678.391 450.888,678.391" style="stroke:#181818;stroke-width:0.5;" fill="#E2E2F0"/><path d="M500.263,678.391 C495.263,678.391 495.263,691.539 495.263,691.539 C495.263,704.688 500.263,704.688 500.263,704.688" style="stroke:#181818;stroke-width:0.5;" fill="none"/><text x="450.888" y="696.386" fill="#000" font-size="14" textLength="39.375">Kafka</text><rect x="884.776" y="678.391" width="130.532" height="30.297" fill="#E2E2F0" style="stroke:#181818;stroke-width:0.5;" rx="2.5" ry="2.5"/><text x="891.776" y="698.386" fill="#000" font-size="14" textLength="116.532">Tracking Service</text><text x="1218.226" y="691.386" fill="#000" font-size="14" textLength="85.176">Tracking DB</text><path d="M1245.814,704.688 C1245.814,694.688 1263.814,694.688 1263.814,694.688 C1263.814,694.688 1281.814,694.688 1281.814,704.688 L1281.814,730.688 C1281.814,740.688 1263.814,740.688 1263.814,740.688 C1263.814,740.688 1245.814,740.688 1245.814,730.688 L1245.814,704.688" style="stroke:#181818;stroke-width:0.5;" fill="#E2E2F0"/><path d="M1245.814,704.688 C1245.814,714.688 1263.814,714.688 1263.814,714.688 C1263.814,714.688 1281.814,714.688 1281.814,704.688" style="stroke:#181818;stroke-width:0.5;" fill="none"/><rect x="1319.402" y="678.391" width="110.223" height="30.297" fill="#E2E2F0" style="stroke:#181818;stroke-width:0.5;" rx="2.5" ry="2.5"/><text x="1326.402" y="698.386" fill="#000" font-size="14" textLength="96.223">Order Service</text><rect x="1676.967" y="678.391" width="150.521" height="30.297" fill="#E2E2F0" style="stroke:#181818;stroke-width:0.5;" rx="2.5" ry="2.5"/><text x="1683.967" y="698.386" fill="#000" font-size="14" textLength="136.521">Notification Service</text><text x="2070.896" y="691.386" fill="#000" font-size="14" textLength="41.132">Buyer</text><ellipse cx="2094.461" cy="703.188" rx="8" ry="8" fill="#E2E2F0" style="stroke:#181818;stroke-width:0.5;"/><path d="M2094.461,711.188 L2094.461,738.188 M2081.461,719.188 L2107.461,719.188 M2094.461,738.188 L2081.461,753.188 M2094.461,738.188 L2107.461,753.188" style="stroke:#181818;stroke-width:0.5;" fill="none"/><polygon points="463.576,148.727,473.576,152.727,463.576,156.727,467.576,152.727" fill="#181818" style="stroke:#181818;stroke-width:1;stroke-linejoin:miter;stroke-miterlimit:10;"/><line x1="72.518" y1="152.727" x2="469.576" y2="152.727" style="stroke:#181818;stroke-width:1;"/><text x="79.518" y="147.661" fill="#000" font-size="13" font-weight="700">1</text><text x="92.563" y="147.661" fill="#000" font-size="13" textLength="366.012">CarrierTrackingEventIntegrationEvent status=Exception</text><polygon points="933.042,177.859,943.042,181.859,933.042,185.859,937.042,181.859" fill="#181818" style="stroke:#181818;stroke-width:1;stroke-linejoin:miter;stroke-miterlimit:10;"/><line x1="475.576" y1="181.859" x2="939.042" y2="181.859" style="stroke:#181818;stroke-width:1;"/><text x="482.576" y="176.793" fill="#000" font-size="13" font-weight="700">2</text><text x="495.621" y="176.793" fill="#000" font-size="13" textLength="176.998">Consome evento do carrier</text><polygon points="1251.814,206.992,1261.814,210.992,1251.814,214.992,1255.814,210.992" fill="#181818" style="stroke:#181818;stroke-width:1;stroke-linejoin:miter;stroke-miterlimit:10;"/><line x1="955.042" y1="210.992" x2="1257.814" y2="210.992" style="stroke:#181818;stroke-width:1;"/><text x="962.042" y="205.926" fill="#000" font-size="13" font-weight="700">3</text><text x="975.088" y="205.926" fill="#000" font-size="13" textLength="209.073">Verifica inbox e providerEventId</text><polygon points="1251.814,236.125,1261.814,240.125,1251.814,244.125,1255.814,240.125" fill="#181818" style="stroke:#181818;stroke-width:1;stroke-linejoin:miter;stroke-miterlimit:10;"/><line x1="955.042" y1="240.125" x2="1257.814" y2="240.125" style="stroke:#181818;stroke-width:1;"/><text x="962.042" y="235.059" fill="#000" font-size="13" font-weight="700">4</text><text x="975.088" y="235.059" fill="#000" font-size="13" textLength="148.84">Persiste TrackingEvent</text><polygon points="1251.814,265.258,1261.814,269.258,1251.814,273.258,1255.814,269.258" fill="#181818" style="stroke:#181818;stroke-width:1;stroke-linejoin:miter;stroke-miterlimit:10;"/><line x1="955.042" y1="269.258" x2="1257.814" y2="269.258" style="stroke:#181818;stroke-width:1;"/><text x="962.042" y="264.192" fill="#000" font-size="13" font-weight="700">5</text><text x="975.088" y="264.192" fill="#000" font-size="13" textLength="276.726">Atualiza ShipmentTracking para Exception</text><polygon points="486.576,294.391,476.576,298.391,486.576,302.391,482.576,298.391" fill="#181818" style="stroke:#181818;stroke-width:1;stroke-linejoin:miter;stroke-miterlimit:10;"/><line x1="480.576" y1="298.391" x2="944.042" y2="298.391" style="stroke:#181818;stroke-width:1;"/><text x="492.576" y="293.325" fill="#000" font-size="13" font-weight="700">6</text><text x="505.621" y="293.325" fill="#000" font-size="13" textLength="432.421">TrackingStatusChangedIntegrationEvent currentStatus=Exception</text><polygon points="1357.513,323.523,1367.513,327.523,1357.513,331.523,1361.513,327.523" fill="#181818" style="stroke:#181818;stroke-width:1;stroke-linejoin:miter;stroke-miterlimit:10;"/><line x1="475.576" y1="327.523" x2="1363.513" y2="327.523" style="stroke:#181818;stroke-width:1;"/><text x="482.576" y="322.458" fill="#000" font-size="13" font-weight="700">7</text><text x="495.621" y="322.458" fill="#000" font-size="13" textLength="264.354">TrackingStatusChangedIntegrationEvent</text><line x1="1379.513" y1="356.656" x2="1421.513" y2="356.656" style="stroke:#181818;stroke-width:1;"/><line x1="1421.513" y1="356.656" x2="1421.513" y2="369.656" style="stroke:#181818;stroke-width:1;"/><line x1="1380.513" y1="369.656" x2="1421.513" y2="369.656" style="stroke:#181818;stroke-width:1;"/><polygon points="1390.513,365.656,1380.513,369.656,1390.513,373.656,1386.513,369.656" fill="#181818" style="stroke:#181818;stroke-width:1;stroke-linejoin:miter;stroke-miterlimit:10;"/><text x="1386.513" y="351.59" fill="#000" font-size="13" font-weight="700">8</text><text x="1399.559" y="351.59" fill="#000" font-size="13" textLength="165.344">Avalia impacto no pedido</text><path d="M1358.513,381.656 L1422.956,381.656 L1422.956,388.789 L1412.956,398.789 L1358.513,398.789 L1358.513,381.656" style="stroke:#000;stroke-width:1.5;" fill="#EEE"/><rect x="1358.513" y="381.656" width="309.454" height="130.203" fill="none" style="stroke:#000;stroke-width:1.5;"/><text x="1373.513" y="394.723" fill="#000" font-size="13" textLength="19.443" font-weight="700">alt</text><text x="1437.956" y="393.867" fill="#000" font-size="11" textLength="137.795" font-weight="700">[Exceção recuperável]</text><line x1="1379.513" y1="429.922" x2="1421.513" y2="429.922" style="stroke:#181818;stroke-width:1;"/><line x1="1421.513" y1="429.922" x2="1421.513" y2="442.922" style="stroke:#181818;stroke-width:1;"/><line x1="1380.513" y1="442.922" x2="1421.513" y2="442.922" style="stroke:#181818;stroke-width:1;"/><polygon points="1390.513,438.922,1380.513,442.922,1390.513,446.922,1386.513,442.922" fill="#181818" style="stroke:#181818;stroke-width:1;stroke-linejoin:miter;stroke-miterlimit:10;"/><text x="1386.513" y="424.856" fill="#000" font-size="13" font-weight="700">9</text><text x="1399.559" y="424.856" fill="#000" font-size="13" textLength="138.087">Mantém pedido ativo</text><line x1="1358.513" y1="451.922" x2="1667.967" y2="451.922" style="stroke:#000;stroke-width:1;stroke-dasharray:2,2;"/><text x="1363.513" y="464.132" fill="#000" font-size="11" textLength="116.375" font-weight="700">[Exceção terminal]</text><line x1="1379.513" y1="490.859" x2="1421.513" y2="490.859" style="stroke:#181818;stroke-width:1;"/><line x1="1421.513" y1="490.859" x2="1421.513" y2="503.859" style="stroke:#181818;stroke-width:1;"/><line x1="1380.513" y1="503.859" x2="1421.513" y2="503.859" style="stroke:#181818;stroke-width:1;"/><polygon points="1390.513,499.859,1380.513,503.859,1390.513,507.859,1386.513,503.859" fill="#181818" style="stroke:#181818;stroke-width:1;stroke-linejoin:miter;stroke-miterlimit:10;"/><text x="1386.513" y="485.793" fill="#000" font-size="13" textLength="18.091" font-weight="700">10</text><text x="1408.604" y="485.793" fill="#000" font-size="13" textLength="243.363">Marca pedido em análise operacional</text><polygon points="1735.227,542.992,1745.227,546.992,1735.227,550.992,1739.227,546.992" fill="#181818" style="stroke:#181818;stroke-width:1;stroke-linejoin:miter;stroke-miterlimit:10;"/><line x1="475.576" y1="546.992" x2="1741.227" y2="546.992" style="stroke:#181818;stroke-width:1;"/><text x="482.576" y="541.926" fill="#000" font-size="13" textLength="18.091" font-weight="700">11</text><text x="504.667" y="541.926" fill="#000" font-size="13" textLength="432.421">TrackingStatusChangedIntegrationEvent currentStatus=Exception</text><line x1="1757.227" y1="576.125" x2="1799.227" y2="576.125" style="stroke:#181818;stroke-width:1;"/><line x1="1799.227" y1="576.125" x2="1799.227" y2="589.125" style="stroke:#181818;stroke-width:1;"/><line x1="1758.227" y1="589.125" x2="1799.227" y2="589.125" style="stroke:#181818;stroke-width:1;"/><polygon points="1768.227,585.125,1758.227,589.125,1768.227,593.125,1764.227,589.125" fill="#181818" style="stroke:#181818;stroke-width:1;stroke-linejoin:miter;stroke-miterlimit:10;"/><text x="1764.227" y="571.059" fill="#000" font-size="13" textLength="18.091" font-weight="700">12</text><text x="1786.318" y="571.059" fill="#000" font-size="13" textLength="202.973">Mapeia para DeliveryException</text><line x1="1757.227" y1="618.258" x2="1799.227" y2="618.258" style="stroke:#181818;stroke-width:1;"/><line x1="1799.227" y1="618.258" x2="1799.227" y2="631.258" style="stroke:#181818;stroke-width:1;"/><line x1="1758.227" y1="631.258" x2="1799.227" y2="631.258" style="stroke:#181818;stroke-width:1;"/><polygon points="1768.227,627.258,1758.227,631.258,1768.227,635.258,1764.227,631.258" fill="#181818" style="stroke:#181818;stroke-width:1;stroke-linejoin:miter;stroke-miterlimit:10;"/><text x="1764.227" y="613.192" fill="#000" font-size="13" textLength="18.091" font-weight="700">13</text><text x="1786.318" y="613.192" fill="#000" font-size="13" textLength="213.44">Aplica preferência do comprador</text><polygon points="2082.461,656.391,2092.461,660.391,2082.461,664.391,2086.461,660.391" fill="#181818" style="stroke:#181818;stroke-width:1;stroke-linejoin:miter;stroke-miterlimit:10;"/><line x1="1757.227" y1="660.391" x2="2088.461" y2="660.391" style="stroke:#181818;stroke-width:1;stroke-dasharray:2,2;"/><text x="1764.227" y="655.325" fill="#000" font-size="13" textLength="18.091" font-weight="700">14</text><text x="1786.318" y="655.325" fill="#000" font-size="13" textLength="296.144">Notifica problema na entrega e próxima ação</text><?plantuml-src fPJFRXCn4CRlVefHxXNYmY4II6aI98GAbOAuptedgLMlRMQzgvItgJWWkF88-sBCUlyt525nIjQUxnlFppEE9bg2bw_W2jxQwknXOoEnmsXgBslxiwRcU_FDWqFOkyXqGY3uuACv6erfIociedTLaH6hW1oDDW5TXDKMcGtnYrlsjSc9Lu0b31_gIqKLmUez7kynxQH_IuTFZFhUk1CSY6kZASKDYoh7Y1cMD8lRNIz2TjdIxoDBveLPMba63TL5uzqYThwXK4VFS5qzYA7iRNqH67FFIWqLmjMRhgOrz2I6O-rhSl6TYtJYP9Q-eOmOg_9ropoa54dSkWmwCVAkz0K1jGeFkGVTMRVdCJL6cl2CK6OEksmDdubJ6M1SvizodQ4_S7Ui_5dXBN5fobcA97WsV1ChjEOhmk7EX48Ynq31ZJ3LEJVeWGrBXyHaUuVkHFa5CLqno-_XARYSBcbCDDEL_sEA2MlNA5q3JIQRMaeKaaLe-m6SXq2voRr26sVJmwIhGDmyrcGLm5EN6-cxvaVHQo5Ddo8hdJrPo5WMnk6VvIotsOkf07JDepMYzf8JjTGYCdBvd4jNpWHbtjl_YtzCiXYOnLXTPBp1G08oTSQEhAc97oR7lsitmRRj79YEmlYdqsBKJiOuaakvwCTfNOzMxHHabWfidpeQdxh0pQ-paTN-iPiXN5Jt6m00?></g></svg>