<svg xmlns="http://www.w3.org/2000/svg" xmlns:xlink="http://www.w3.org/1999/xlink" contentStyleType="text/css" data-diagram-type="SEQUENCE" height="739px" preserveAspectRatio="none" style="width:2055px;height:739px;background:#FFFFFF;" version="1.1" viewBox="0 0 2055 739" width="2055px" zoomAndPan="magnify"><?plantuml 1.2026.6?><defs/><g><g class="title" data-source-line="1"><text fill="#000000" font-family="sans-serif" font-size="14" font-weight="700" lengthAdjust="spacing" textLength="449.9004" x="799.4333" y="27.9951">16 - Fluxo Alternativo - Exce&#231;&#227;o na Entrega e Notifica&#231;&#227;o</text></g><g><title>Tracking Service</title><rect fill="#FFFFFF" height="116.5313" style="stroke:#181818;stroke-width:1;" width="10" x="940.0425" y="178.8594"/></g><g><title>Order Service</title><rect fill="#FFFFFF" height="180.3359" style="stroke:#181818;stroke-width:1;" width="10" x="1369.5132" y="324.5234"/></g><g><title>Notification Service</title><rect fill="#FFFFFF" height="113.3984" style="stroke:#181818;stroke-width:1;" width="10" x="1668.9668" y="525.9922"/></g><rect fill="none" height="116.2031" style="stroke:#000000;stroke-width:1.5;" width="364.5649" x="1309.4019" y="381.6563"/><g class="participant-lifeline" data-entity-uid="part1" data-qualified-name="Provider" data-source-line="4" id="part1-lifeline"><g><title>Carrier.Provider</title><rect fill="#000000" fill-opacity="0.00000" height="538.7969" width="8" x="63.5181" y="118.5938"/><line style="stroke:#181818;stroke-width:0.5;stroke-dasharray:5,5;" x1="67" x2="67" y1="118.5938" y2="657.3906"/></g></g><g class="participant-lifeline" data-entity-uid="part2" data-qualified-name="Kafka" data-source-line="5" id="part2-lifeline"><g><title>Kafka</title><rect fill="#000000" fill-opacity="0.00000" height="538.7969" width="8" x="466.5757" y="118.5938"/><line style="stroke:#181818;stroke-width:0.5;stroke-dasharray:5,5;" x1="469.8882" x2="469.8882" y1="118.5938" y2="657.3906"/></g></g><g class="participant-lifeline" data-entity-uid="part3" data-qualified-name="Tracking" data-source-line="6" id="part3-lifeline"><g><title>Tracking Service</title><rect fill="#000000" fill-opacity="0.00000" height="538.7969" width="8" x="941.0425" y="118.5938"/><line style="stroke:#181818;stroke-width:0.5;stroke-dasharray:5,5;" x1="944.7764" x2="944.7764" y1="118.5938" y2="657.3906"/></g></g><g class="participant-lifeline" data-entity-uid="part4" data-qualified-name="TrackingDb" data-source-line="7" id="part4-lifeline"><g><title>Tracking DB</title><rect fill="#000000" fill-opacity="0.00000" height="538.7969" width="8" x="1259.814" y="118.5938"/><line style="stroke:#181818;stroke-width:0.5;stroke-dasharray:5,5;" x1="1263.2261" x2="1263.2261" y1="118.5938" y2="657.3906"/></g></g><g class="participant-lifeline" data-entity-uid="part5" data-qualified-name="Order" data-source-line="8" id="part5-lifeline"><g><title>Order Service</title><rect fill="#000000" fill-opacity="0.00000" height="538.7969" width="8" x="1370.5132" y="118.5938"/><line style="stroke:#181818;stroke-width:0.5;stroke-dasharray:5,5;" x1="1374.4019" x2="1374.4019" y1="118.5938" y2="657.3906"/></g></g><g class="participant-lifeline" data-entity-uid="part6" data-qualified-name="Notification" data-source-line="9" id="part6-lifeline"><g><title>Notification Service</title><rect fill="#000000" fill-opacity="0.00000" height="538.7969" width="8" x="1669.9668" y="118.5938"/><line style="stroke:#181818;stroke-width:0.5;stroke-dasharray:5,5;" x1="1673.7065" x2="1673.7065" y1="118.5938" y2="657.3906"/></g></g><g class="participant-lifeline" data-entity-uid="part7" data-qualified-name="Comprador" data-source-line="10" id="part7-lifeline"><g><title>Buyer</title><rect fill="#000000" fill-opacity="0.00000" height="538.7969" width="8" x="2017.2012" y="118.5938"/><line style="stroke:#181818;stroke-width:0.5;stroke-dasharray:5,5;" x1="2020.6353" x2="2020.6353" y1="118.5938" y2="657.3906"/></g></g><g class="participant participant-head" data-entity-uid="part1" data-qualified-name="Provider" data-source-line="4" id="part1-head"><rect fill="#E2E2F0" height="30.2969" rx="2.5" ry="2.5" style="stroke:#181818;stroke-width:0.5;" width="125.0361" x="5" y="87.2969"/><text fill="#000000" font-family="sans-serif" font-size="14" lengthAdjust="spacing" textLength="111.0361" x="12" y="107.292">Carrier/Provider</text></g><g class="participant participant-tail" data-entity-uid="part1" data-qualified-name="Provider" data-source-line="4" id="part1-tail"><rect fill="#E2E2F0" height="30.2969" rx="2.5" ry="2.5" style="stroke:#181818;stroke-width:0.5;" width="125.0361" x="5" y="656.3906"/><text fill="#000000" font-family="sans-serif" font-size="14" lengthAdjust="spacing" textLength="111.0361" x="12" y="676.3857">Carrier/Provider</text></g><g class="participant participant-head" data-entity-uid="part2" data-qualified-name="Kafka" data-source-line="5" id="part2-head"><path d="M445.8882,92.2969 L495.2632,92.2969 C500.2632,92.2969 500.2632,105.4453 500.2632,105.4453 C500.2632,105.4453 500.2632,118.5938 495.2632,118.5938 L445.8882,118.5938 C440.8882,118.5938 440.8882,105.4453 440.8882,105.4453 C440.8882,105.4453 440.8882,92.2969 445.8882,92.2969" fill="#E2E2F0" style="stroke:#181818;stroke-width:0.5;"/><path d="M495.2632,92.2969 C490.2632,92.2969 490.2632,105.4453 490.2632,105.4453 C490.2632,118.5938 495.2632,118.5938 495.2632,118.5938" fill="none" style="stroke:#181818;stroke-width:0.5;"/><text fill="#000000" font-family="sans-serif" font-size="14" lengthAdjust="spacing" textLength="39.375" x="445.8882" y="110.292">Kafka</text></g><g class="participant participant-tail" data-entity-uid="part2" data-qualified-name="Kafka" data-source-line="5" id="part2-tail"><path d="M445.8882,656.3906 L495.2632,656.3906 C500.2632,656.3906 500.2632,669.5391 500.2632,669.5391 C500.2632,669.5391 500.2632,682.6875 495.2632,682.6875 L445.8882,682.6875 C440.8882,682.6875 440.8882,669.5391 440.8882,669.5391 C440.8882,669.5391 440.8882,656.3906 445.8882,656.3906" fill="#E2E2F0" style="stroke:#181818;stroke-width:0.5;"/><path d="M495.2632,656.3906 C490.2632,656.3906 490.2632,669.5391 490.2632,669.5391 C490.2632,682.6875 495.2632,682.6875 495.2632,682.6875" fill="none" style="stroke:#181818;stroke-width:0.5;"/><text fill="#000000" font-family="sans-serif" font-size="14" lengthAdjust="spacing" textLength="39.375" x="445.8882" y="674.3857">Kafka</text></g><g class="participant participant-head" data-entity-uid="part3" data-qualified-name="Tracking" data-source-line="6" id="part3-head"><rect fill="#E2E2F0" height="30.2969" rx="2.5" ry="2.5" style="stroke:#181818;stroke-width:0.5;" width="130.5322" x="879.7764" y="87.2969"/><text fill="#000000" font-family="sans-serif" font-size="14" lengthAdjust="spacing" textLength="116.5322" x="886.7764" y="107.292">Tracking Service</text></g><g class="participant participant-tail" data-entity-uid="part3" data-qualified-name="Tracking" data-source-line="6" id="part3-tail"><rect fill="#E2E2F0" height="30.2969" rx="2.5" ry="2.5" style="stroke:#181818;stroke-width:0.5;" width="130.5322" x="879.7764" y="656.3906"/><text fill="#000000" font-family="sans-serif" font-size="14" lengthAdjust="spacing" textLength="116.5322" x="886.7764" y="676.3857">Tracking Service</text></g><g class="participant participant-head" data-entity-uid="part4" data-qualified-name="TrackingDb" data-source-line="7" id="part4-head"><text fill="#000000" font-family="sans-serif" font-size="14" lengthAdjust="spacing" textLength="85.1758" x="1218.2261" y="115.292">Tracking DB</text><path d="M1245.814,66.2969 C1245.814,56.2969 1263.814,56.2969 1263.814,56.2969 C1263.814,56.2969 1281.814,56.2969 1281.814,66.2969 L1281.814,92.2969 C1281.814,102.2969 1263.814,102.2969 1263.814,102.2969 C1263.814,102.2969 1245.814,102.2969 1245.814,92.2969 L1245.814,66.2969" fill="#E2E2F0" style="stroke:#181818;stroke-width:0.5;"/><path d="M1245.814,66.2969 C1245.814,76.2969 1263.814,76.2969 1263.814,76.2969 C1263.814,76.2969 1281.814,76.2969 1281.814,66.2969" fill="none" style="stroke:#181818;stroke-width:0.5;"/></g><g class="participant participant-tail" data-entity-uid="part4" data-qualified-name="TrackingDb" data-source-line="7" id="part4-tail"><text fill="#000000" font-family="sans-serif" font-size="14" lengthAdjust="spacing" textLength="85.1758" x="1218.2261" y="669.3857">Tracking DB</text><path d="M1245.814,682.6875 C1245.814,672.6875 1263.814,672.6875 1263.814,672.6875 C1263.814,672.6875 1281.814,672.6875 1281.814,682.6875 L1281.814,708.6875 C1281.814,718.6875 1263.814,718.6875 1263.814,718.6875 C1263.814,718.6875 1245.814,718.6875 1245.814,708.6875 L1245.814,682.6875" fill="#E2E2F0" style="stroke:#181818;stroke-width:0.5;"/><path d="M1245.814,682.6875 C1245.814,692.6875 1263.814,692.6875 1263.814,692.6875 C1263.814,692.6875 1281.814,692.6875 1281.814,682.6875" fill="none" style="stroke:#181818;stroke-width:0.5;"/></g><g class="participant participant-head" data-entity-uid="part5" data-qualified-name="Order" data-source-line="8" id="part5-head"><rect fill="#E2E2F0" height="30.2969" rx="2.5" ry="2.5" style="stroke:#181818;stroke-width:0.5;" width="110.2227" x="1319.4019" y="87.2969"/><text fill="#000000" font-family="sans-serif" font-size="14" lengthAdjust="spacing" textLength="96.2227" x="1326.4019" y="107.292">Order Service</text></g><g class="participant participant-tail" data-entity-uid="part5" data-qualified-name="Order" data-source-line="8" id="part5-tail"><rect fill="#E2E2F0" height="30.2969" rx="2.5" ry="2.5" style="stroke:#181818;stroke-width:0.5;" width="110.2227" x="1319.4019" y="656.3906"/><text fill="#000000" font-family="sans-serif" font-size="14" lengthAdjust="spacing" textLength="96.2227" x="1326.4019" y="676.3857">Order Service</text></g><g class="participant participant-head" data-entity-uid="part6" data-qualified-name="Notification" data-source-line="9" id="part6-head"><rect fill="#E2E2F0" height="30.2969" rx="2.5" ry="2.5" style="stroke:#181818;stroke-width:0.5;" width="150.5205" x="1598.7065" y="87.2969"/><text fill="#000000" font-family="sans-serif" font-size="14" lengthAdjust="spacing" textLength="136.5205" x="1605.7065" y="107.292">Notification Service</text></g><g class="participant participant-tail" data-entity-uid="part6" data-qualified-name="Notification" data-source-line="9" id="part6-tail"><rect fill="#E2E2F0" height="30.2969" rx="2.5" ry="2.5" style="stroke:#181818;stroke-width:0.5;" width="150.5205" x="1598.7065" y="656.3906"/><text fill="#000000" font-family="sans-serif" font-size="14" lengthAdjust="spacing" textLength="136.5205" x="1605.7065" y="676.3857">Notification Service</text></g><g class="participant participant-head" data-entity-uid="part7" data-qualified-name="Comprador" data-source-line="10" id="part7-head"><text fill="#000000" font-family="sans-serif" font-size="14" lengthAdjust="spacing" textLength="41.1318" x="1997.6353" y="115.292">Buyer</text><ellipse cx="2021.2012" cy="50.7969" fill="#E2E2F0" rx="8" ry="8" style="stroke:#181818;stroke-width:0.5;"/><path d="M2021.2012,58.7969 L2021.2012,85.7969 M2008.2012,66.7969 L2034.2012,66.7969 M2021.2012,85.7969 L2008.2012,100.7969 M2021.2012,85.7969 L2034.2012,100.7969" fill="none" style="stroke:#181818;stroke-width:0.5;"/></g><g class="participant participant-tail" data-entity-uid="part7" data-qualified-name="Comprador" data-source-line="10" id="part7-tail"><text fill="#000000" font-family="sans-serif" font-size="14" lengthAdjust="spacing" textLength="41.1318" x="1997.6353" y="669.3857">Buyer</text><ellipse cx="2021.2012" cy="681.1875" fill="#E2E2F0" rx="8" ry="8" style="stroke:#181818;stroke-width:0.5;"/><path d="M2021.2012,689.1875 L2021.2012,716.1875 M2008.2012,697.1875 L2034.2012,697.1875 M2021.2012,716.1875 L2008.2012,731.1875 M2021.2012,716.1875 L2034.2012,731.1875" fill="none" style="stroke:#181818;stroke-width:0.5;"/></g><g><title>Tracking Service</title><rect fill="#FFFFFF" height="116.5313" style="stroke:#181818;stroke-width:1;" width="10" x="940.0425" y="178.8594"/></g><g><title>Order Service</title><rect fill="#FFFFFF" height="180.3359" style="stroke:#181818;stroke-width:1;" width="10" x="1369.5132" y="324.5234"/></g><g><title>Notification Service</title><rect fill="#FFFFFF" height="113.3984" style="stroke:#181818;stroke-width:1;" width="10" x="1668.9668" y="525.9922"/></g><g class="message" data-entity-1="part1" data-entity-2="part2" data-source-line="12" id="msg1"><polygon fill="#181818" points="458.5757,145.7266,468.5757,149.7266,458.5757,153.7266,462.5757,149.7266" style="stroke:#181818;stroke-width:1;stroke-linejoin:miter;stroke-miterlimit:10;"/><line style="stroke:#181818;stroke-width:1;" x1="67.5181" x2="464.5757" y1="149.7266" y2="149.7266"/><text fill="#000000" font-family="sans-serif" font-size="13" font-weight="700" lengthAdjust="spacing" textLength="9.0454" x="74.5181" y="144.6606">1</text><text fill="#000000" font-family="sans-serif" font-size="13" lengthAdjust="spacing" textLength="366.0122" x="87.5635" y="144.6606">CarrierTrackingEventIntegrationEvent status=Exception</text></g><g class="message" data-entity-1="part2" data-entity-2="part3" data-source-line="13" id="msg2"><polygon fill="#181818" points="928.0425,174.8594,938.0425,178.8594,928.0425,182.8594,932.0425,178.8594" style="stroke:#181818;stroke-width:1;stroke-linejoin:miter;stroke-miterlimit:10;"/><line style="stroke:#181818;stroke-width:1;" x1="470.5757" x2="934.0425" y1="178.8594" y2="178.8594"/><text fill="#000000" font-family="sans-serif" font-size="13" font-weight="700" lengthAdjust="spacing" textLength="9.0454" x="477.5757" y="173.7935">2</text><text fill="#000000" font-family="sans-serif" font-size="13" lengthAdjust="spacing" textLength="176.998" x="490.6211" y="173.7935">Consome evento do carrier</text></g><g class="message" data-entity-1="part3" data-entity-2="part4" data-source-line="15" id="msg3"><polygon fill="#181818" points="1251.814,203.9922,1261.814,207.9922,1251.814,211.9922,1255.814,207.9922" style="stroke:#181818;stroke-width:1;stroke-linejoin:miter;stroke-miterlimit:10;"/><line style="stroke:#181818;stroke-width:1;" x1="950.0425" x2="1257.814" y1="207.9922" y2="207.9922"/><text fill="#000000" font-family="sans-serif" font-size="13" font-weight="700" lengthAdjust="spacing" textLength="9.0454" x="957.0425" y="202.9263">3</text><text fill="#000000" font-family="sans-serif" font-size="13" lengthAdjust="spacing" textLength="209.0728" x="970.0879" y="202.9263">Verifica inbox e providerEventId</text></g><g class="message" data-entity-1="part3" data-entity-2="part4" data-source-line="16" id="msg4"><polygon fill="#181818" points="1251.814,233.125,1261.814,237.125,1251.814,241.125,1255.814,237.125" style="stroke:#181818;stroke-width:1;stroke-linejoin:miter;stroke-miterlimit:10;"/><line style="stroke:#181818;stroke-width:1;" x1="950.0425" x2="1257.814" y1="237.125" y2="237.125"/><text fill="#000000" font-family="sans-serif" font-size="13" font-weight="700" lengthAdjust="spacing" textLength="9.0454" x="957.0425" y="232.0591">4</text><text fill="#000000" font-family="sans-serif" font-size="13" lengthAdjust="spacing" textLength="148.8398" x="970.0879" y="232.0591">Persiste TrackingEvent</text></g><g class="message" data-entity-1="part3" data-entity-2="part4" data-source-line="17" id="msg5"><polygon fill="#181818" points="1251.814,262.2578,1261.814,266.2578,1251.814,270.2578,1255.814,266.2578" style="stroke:#181818;stroke-width:1;stroke-linejoin:miter;stroke-miterlimit:10;"/><line style="stroke:#181818;stroke-width:1;" x1="950.0425" x2="1257.814" y1="266.2578" y2="266.2578"/><text fill="#000000" font-family="sans-serif" font-size="13" font-weight="700" lengthAdjust="spacing" textLength="9.0454" x="957.0425" y="261.1919">5</text><text fill="#000000" font-family="sans-serif" font-size="13" lengthAdjust="spacing" textLength="276.7261" x="970.0879" y="261.1919">Atualiza ShipmentTracking para Exception</text></g><g class="message" data-entity-1="part3" data-entity-2="part2" data-source-line="18" id="msg6"><polygon fill="#181818" points="481.5757,291.3906,471.5757,295.3906,481.5757,299.3906,477.5757,295.3906" style="stroke:#181818;stroke-width:1;stroke-linejoin:miter;stroke-miterlimit:10;"/><line style="stroke:#181818;stroke-width:1;" x1="475.5757" x2="944.0425" y1="295.3906" y2="295.3906"/><text fill="#000000" font-family="sans-serif" font-size="13" font-weight="700" lengthAdjust="spacing" textLength="9.0454" x="487.5757" y="290.3247">6</text><text fill="#000000" font-family="sans-serif" font-size="13" lengthAdjust="spacing" textLength="432.4214" x="500.6211" y="290.3247">TrackingStatusChangedIntegrationEvent currentStatus=Exception</text></g><g class="message" data-entity-1="part2" data-entity-2="part5" data-source-line="21" id="msg7"><polygon fill="#181818" points="1357.5132,320.5234,1367.5132,324.5234,1357.5132,328.5234,1361.5132,324.5234" style="stroke:#181818;stroke-width:1;stroke-linejoin:miter;stroke-miterlimit:10;"/><line style="stroke:#181818;stroke-width:1;" x1="470.5757" x2="1363.5132" y1="324.5234" y2="324.5234"/><text fill="#000000" font-family="sans-serif" font-size="13" font-weight="700" lengthAdjust="spacing" textLength="9.0454" x="477.5757" y="319.4575">7</text><text fill="#000000" font-family="sans-serif" font-size="13" lengthAdjust="spacing" textLength="264.3545" x="490.6211" y="319.4575">TrackingStatusChangedIntegrationEvent</text></g><g class="message" data-entity-1="part5" data-entity-2="part5" data-source-line="23" id="msg8"><line style="stroke:#181818;stroke-width:1;" x1="1379.5132" x2="1421.5132" y1="353.6563" y2="353.6563"/><line style="stroke:#181818;stroke-width:1;" x1="1421.5132" x2="1421.5132" y1="353.6563" y2="366.6563"/><line style="stroke:#181818;stroke-width:1;" x1="1380.5132" x2="1421.5132" y1="366.6563" y2="366.6563"/><polygon fill="#181818" points="1390.5132,362.6563,1380.5132,366.6563,1390.5132,370.6563,1386.5132,366.6563" style="stroke:#181818;stroke-width:1;stroke-linejoin:miter;stroke-miterlimit:10;"/><text fill="#000000" font-family="sans-serif" font-size="13" font-weight="700" lengthAdjust="spacing" textLength="9.0454" x="1386.5132" y="348.5903">8</text><text fill="#000000" font-family="sans-serif" font-size="13" lengthAdjust="spacing" textLength="165.3438" x="1399.5586" y="348.5903">Avalia impacto no pedido</text></g><path d="M1309.4019,381.6563 L1373.8447,381.6563 L1373.8447,388.7891 L1363.8447,398.7891 L1309.4019,398.7891 L1309.4019,381.6563" fill="#EEEEEE" style="stroke:#000000;stroke-width:1.5;"/><rect fill="none" height="116.2031" style="stroke:#000000;stroke-width:1.5;" width="364.5649" x="1309.4019" y="381.6563"/><text fill="#000000" font-family="sans-serif" font-size="13" font-weight="700" lengthAdjust="spacing" textLength="19.4429" x="1324.4019" y="394.7231">alt</text><text fill="#000000" font-family="sans-serif" font-size="11" font-weight="700" lengthAdjust="spacing" textLength="137.7954" x="1388.8447" y="393.8667">[Exce&#231;&#227;o recuper&#225;vel]</text><g class="message" data-entity-1="part5" data-entity-2="part5" data-source-line="25" id="msg9"><line style="stroke:#181818;stroke-width:1;" x1="1379.5132" x2="1421.5132" y1="419.9219" y2="419.9219"/><line style="stroke:#181818;stroke-width:1;" x1="1421.5132" x2="1421.5132" y1="419.9219" y2="432.9219"/><line style="stroke:#181818;stroke-width:1;" x1="1380.5132" x2="1421.5132" y1="432.9219" y2="432.9219"/><polygon fill="#181818" points="1390.5132,428.9219,1380.5132,432.9219,1390.5132,436.9219,1386.5132,432.9219" style="stroke:#181818;stroke-width:1;stroke-linejoin:miter;stroke-miterlimit:10;"/><text fill="#000000" font-family="sans-serif" font-size="13" font-weight="700" lengthAdjust="spacing" textLength="9.0454" x="1386.5132" y="414.856">9</text><text fill="#000000" font-family="sans-serif" font-size="13" lengthAdjust="spacing" textLength="138.0869" x="1399.5586" y="414.856">Mant&#233;m pedido ativo</text></g><line style="stroke:#000000;stroke-width:1;stroke-dasharray:2,2;" x1="1309.4019" x2="1673.9668" y1="441.9219" y2="441.9219"/><text fill="#000000" font-family="sans-serif" font-size="11" font-weight="700" lengthAdjust="spacing" textLength="116.3755" x="1314.4019" y="452.1323">[Exce&#231;&#227;o terminal]</text><g class="message" data-entity-1="part5" data-entity-2="part5" data-source-line="27" id="msg10"><line style="stroke:#181818;stroke-width:1;" x1="1379.5132" x2="1421.5132" y1="476.8594" y2="476.8594"/><line style="stroke:#181818;stroke-width:1;" x1="1421.5132" x2="1421.5132" y1="476.8594" y2="489.8594"/><line style="stroke:#181818;stroke-width:1;" x1="1380.5132" x2="1421.5132" y1="489.8594" y2="489.8594"/><polygon fill="#181818" points="1390.5132,485.8594,1380.5132,489.8594,1390.5132,493.8594,1386.5132,489.8594" style="stroke:#181818;stroke-width:1;stroke-linejoin:miter;stroke-miterlimit:10;"/><text fill="#000000" font-family="sans-serif" font-size="13" font-weight="700" lengthAdjust="spacing" textLength="18.0908" x="1386.5132" y="471.7935">10</text><text fill="#000000" font-family="sans-serif" font-size="13" lengthAdjust="spacing" textLength="243.3628" x="1408.604" y="471.7935">Marca pedido em an&#225;lise operacional</text></g><g class="message" data-entity-1="part2" data-entity-2="part6" data-source-line="31" id="msg11"><polygon fill="#181818" points="1656.9668,521.9922,1666.9668,525.9922,1656.9668,529.9922,1660.9668,525.9922" style="stroke:#181818;stroke-width:1;stroke-linejoin:miter;stroke-miterlimit:10;"/><line style="stroke:#181818;stroke-width:1;" x1="470.5757" x2="1662.9668" y1="525.9922" y2="525.9922"/><text fill="#000000" font-family="sans-serif" font-size="13" font-weight="700" lengthAdjust="spacing" textLength="18.0908" x="477.5757" y="520.9263">11</text><text fill="#000000" font-family="sans-serif" font-size="13" lengthAdjust="spacing" textLength="432.4214" x="499.6665" y="520.9263">TrackingStatusChangedIntegrationEvent currentStatus=Exception</text></g><g class="message" data-entity-1="part6" data-entity-2="part6" data-source-line="33" id="msg12"><line style="stroke:#181818;stroke-width:1;" x1="1678.9668" x2="1720.9668" y1="555.125" y2="555.125"/><line style="stroke:#181818;stroke-width:1;" x1="1720.9668" x2="1720.9668" y1="555.125" y2="568.125"/><line style="stroke:#181818;stroke-width:1;" x1="1679.9668" x2="1720.9668" y1="568.125" y2="568.125"/><polygon fill="#181818" points="1689.9668,564.125,1679.9668,568.125,1689.9668,572.125,1685.9668,568.125" style="stroke:#181818;stroke-width:1;stroke-linejoin:miter;stroke-miterlimit:10;"/><text fill="#000000" font-family="sans-serif" font-size="13" font-weight="700" lengthAdjust="spacing" textLength="18.0908" x="1685.9668" y="550.0591">12</text><text fill="#000000" font-family="sans-serif" font-size="13" lengthAdjust="spacing" textLength="202.9727" x="1708.0576" y="550.0591">Mapeia para DeliveryException</text></g><g class="message" data-entity-1="part6" data-entity-2="part6" data-source-line="34" id="msg13"><line style="stroke:#181818;stroke-width:1;" x1="1678.9668" x2="1720.9668" y1="597.2578" y2="597.2578"/><line style="stroke:#181818;stroke-width:1;" x1="1720.9668" x2="1720.9668" y1="597.2578" y2="610.2578"/><line style="stroke:#181818;stroke-width:1;" x1="1679.9668" x2="1720.9668" y1="610.2578" y2="610.2578"/><polygon fill="#181818" points="1689.9668,606.2578,1679.9668,610.2578,1689.9668,614.2578,1685.9668,610.2578" style="stroke:#181818;stroke-width:1;stroke-linejoin:miter;stroke-miterlimit:10;"/><text fill="#000000" font-family="sans-serif" font-size="13" font-weight="700" lengthAdjust="spacing" textLength="18.0908" x="1685.9668" y="592.1919">13</text><text fill="#000000" font-family="sans-serif" font-size="13" lengthAdjust="spacing" textLength="213.4399" x="1708.0576" y="592.1919">Aplica prefer&#234;ncia do comprador</text></g><g class="message" data-entity-1="part6" data-entity-2="part7" data-source-line="35" id="msg14"><polygon fill="#181818" points="2009.2012,635.3906,2019.2012,639.3906,2009.2012,643.3906,2013.2012,639.3906" style="stroke:#181818;stroke-width:1;stroke-linejoin:miter;stroke-miterlimit:10;"/><line style="stroke:#181818;stroke-width:1;stroke-dasharray:2,2;" x1="1673.9668" x2="2015.2012" y1="639.3906" y2="639.3906"/><text fill="#000000" font-family="sans-serif" font-size="13" font-weight="700" lengthAdjust="spacing" textLength="18.0908" x="1680.9668" y="634.3247">14</text><text fill="#000000" font-family="sans-serif" font-size="13" lengthAdjust="spacing" textLength="296.1436" x="1703.0576" y="634.3247">Notifica problema na entrega e pr&#243;xima a&#231;&#227;o</text></g><?plantuml-src fPJFRXCn4CRlVefHxXNYmY4II6aI98GAbOAuptedgLMlRMQzgvItgJWWkF88-sBCUlyt525nIjQUxnlFppEE9bg2bw_W2jxQwknXOoEnmsXgBslxiwRcU_FDWqFOkyXqGY3uuACv6erfIociedTLaH6hW1oDDW5TXDKMcGtnYrlsjSc9Lu0b31_gIqKLmUez7kynxQH_IuTFZFhUk1CSY6kZASKDYoh7Y1cMD8lRNIz2TjdIxoDBveLPMba63TL5uzqYThwXK4VFS5qzYA7iRNqH67FFIWqLmjMRhgOrz2I6O-rhSl6TYtJYP9Q-eOmOg_9ropoa54dSkWmwCVAkz0K1jGeFkGVTMRVdCJL6cl2CK6OEksmDdubJ6M1SvizodQ4_S7Ui_5dXBN5fobcA97WsV1ChjEOhmk7EX48Ynq31ZJ3LEJVeWGrBXyHaUuVkHFa5CLqno-_XARYSBcbCDDEL_sEA2MlNA5q3JIQRMaeKaaLe-m6SXq2voRr26sVJmwIhGDmyrcGLm5EN6-cxvaVHQo5Ddo8hdJrPo5WMnk6VvIotsOkf07JDepMYzf8JjTGYCdBvd4jNpWHbtjl_YtzCiXYOnLXTPBp1G08oTSQEhAc97oR7lsitmRRj79YEmlYdqsBKJiOuaakvwCTfNOzMxHHabWfidpeQdxh0pQ-paTN-iPiXN5Jt6m00?></g></svg>